# Blender3D v248 OBJ File: map_Rome_allege.blend
# www.blender3d.org
mtllib momoshiro/cerisier03.mtl
v 2.301670 0.827450 -1.679020
v 2.319020 0.827450 -1.418850
v 2.615540 1.000430 -1.562400
v 2.516840 1.000430 -1.727930
v 2.625290 0.827450 -1.352060
v 2.792690 1.000430 -1.486490
v 3.107680 0.827450 -1.505120
v 3.087070 1.000430 -1.553400
v 3.301750 0.827450 -1.685630
v 3.214010 1.000430 -1.698430
v 3.322240 0.791730 -1.911000
v 3.231450 1.000430 -1.890360
v 3.206350 0.827450 -2.105360
v 3.132750 1.000430 -2.055900
v 2.322160 0.827450 -1.904380
v 2.534290 1.000430 -1.919870
v 2.686870 1.198840 -1.578610
v 2.588170 1.198840 -1.744140
v 2.864020 1.198840 -1.502700
v 3.051960 1.198840 -1.545420
v 3.178890 1.198840 -1.690440
v 3.196340 1.198840 -1.882380
v 3.097640 1.198840 -2.047910
v 2.605620 1.198840 -1.936080
v 2.800550 1.683340 -1.617950
v 2.708940 1.683340 -1.771590
v 2.964970 1.683340 -1.547500
v 3.139400 1.683340 -1.587150
v 3.257220 1.683340 -1.721750
v 3.273410 1.683340 -1.899900
v 3.181800 1.683340 -2.053540
v 2.725130 1.683340 -1.949740
v 2.803270 1.978320 -1.625130
v 2.721680 1.978320 -1.761960
v 2.949690 1.978320 -1.562390
v 3.105030 1.978320 -1.597700
v 3.874690 2.491870 -1.721330
v 3.907730 2.491870 -1.802170
v 3.877280 2.560340 -1.788600
v 3.849440 2.560340 -1.720490
v 3.224370 1.978320 -1.876220
v 3.209950 1.978320 -1.717570
v 3.142790 1.978320 -2.013040
v 2.736110 1.978320 -1.920600
v 2.805000 2.166210 -1.629700
v 2.806530 2.332250 -1.633750
v 2.736980 2.332250 -1.750400
v 2.729800 2.166210 -1.755820
v 2.931360 2.332250 -1.580260
v 2.939960 2.166210 -1.571880
v 3.063790 2.332250 -1.610360
v 3.083140 2.166210 -1.604420
v 3.153240 2.332250 -1.712550
v 3.179850 2.166210 -1.714910
v 3.165540 2.332250 -1.847810
v 3.193140 2.166210 -1.861130
v 3.095980 2.332250 -1.964450
v 3.117940 2.166210 -1.987250
v 3.198470 2.568490 -2.436040
v 3.192840 2.647610 -2.423110
v 3.239080 2.647610 -2.403290
v 3.249540 2.568490 -2.414160
v 2.749270 2.332250 -1.885650
v 2.743100 2.166210 -1.902050
v 1.867150 2.490070 -1.955200
v 1.865010 2.563820 -1.941140
v 1.875100 2.572360 -1.992520
v 1.878180 2.499410 -2.011400
v 2.643220 2.173970 -1.791060
v 2.637390 2.039000 -1.795470
v 2.651870 2.173970 -1.886150
v 2.646850 2.039000 -1.899480
v 2.432760 2.215120 -1.821300
v 2.428180 2.108920 -1.824770
v 2.439570 2.215120 -1.896120
v 2.435620 2.108920 -1.906610
v 2.218340 2.288320 -1.870050
v 2.215100 2.213320 -1.872500
v 2.223140 2.288320 -1.922890
v 2.220350 2.213320 -1.930300
v 2.971150 2.332250 -2.017940
v 3.136380 2.415490 -2.163610
v 3.090140 2.415490 -2.183430
v 3.146840 2.336370 -2.174470
v 2.982980 2.166210 -2.045080
v 3.095770 2.336370 -2.196360
v 3.280350 1.853030 -1.635680
v 3.222830 1.853030 -1.569960
v 3.247140 1.999650 -1.632740
v 3.198680 1.999650 -1.577370
v 3.447670 2.055880 -1.693570
v 3.414630 2.055880 -1.612730
v 3.417220 2.162350 -1.680010
v 3.389380 2.162350 -1.611900
v 3.638590 2.241230 -1.738510
v 3.605550 2.241230 -1.657670
v 3.608140 2.309700 -1.724940
v 3.580310 2.309700 -1.656830
v 2.806530 2.879640 -1.633750
v 2.736980 2.879640 -1.750400
v 2.931360 2.879640 -1.580260
v 3.063790 2.879640 -1.610360
v 3.153240 2.879640 -1.712550
v 3.165540 2.879640 -1.847810
v 3.095980 2.879640 -1.964450
v 2.749270 2.879640 -1.885650
vt 0.750000 0.200000
vt 0.850000 0.200000
vt 0.850000 0.400000
vt 0.750000 0.400000
vt 0.950000 0.200000
vt 0.950000 0.400000
vt 1.050000 0.200000
vt 1.050000 0.400000
vt 0.050000 0.200000
vt 0.150000 0.200000
vt 0.150000 0.400000
vt 0.050000 0.400000
vt 0.250000 0.200000
vt 0.250000 0.400000
vt 0.350000 0.200000
vt 0.350000 0.400000
vt 0.650000 0.200000
vt 0.650000 0.400000
vt 0.850000 0.600000
vt 0.750000 0.600000
vt 0.950000 0.600000
vt 1.050000 0.600000
vt 0.150000 0.600000
vt 0.050000 0.600000
vt 0.250000 0.600000
vt 0.350000 0.600000
vt 0.650000 0.600000
vt 0.850000 0.800000
vt 0.750000 0.800000
vt 0.950000 0.800000
vt 1.050000 0.800000
vt 0.150000 0.800000
vt 0.050000 0.800000
vt 0.250000 0.800000
vt 0.350000 0.800000
vt 0.650000 0.800000
vt 0.850000 0.890900
vt 0.750000 0.890900
vt 0.950000 0.890900
vt 1.050000 0.890900
vt 0.150000 0.890900
vt 0.050000 0.890900
vt 0.250000 0.890900
vt 0.350000 0.890900
vt 0.650000 0.890900
vt 0.850000 0.948800
vt 0.850000 1.000000
vt 0.750000 1.000000
vt 0.750000 0.948800
vt 0.950000 1.000000
vt 0.950000 0.948800
vt 1.050000 1.000000
vt 1.050000 0.948800
vt 0.150000 1.000000
vt 0.050000 1.000000
vt 0.050000 0.948800
vt 0.150000 0.948800
vt 0.250000 1.000000
vt 0.250000 0.948800
vt 0.350000 1.000000
vt 0.350000 0.948800
vt 0.450000 0.948800
vt 0.450000 1.000000
vt 0.650000 1.000000
vt 0.650000 0.948800
vt 0.975500 0.345500
vt 0.793900 0.095500
vt 0.206100 0.904500
vt 0.500000 1.000000
vt 0.024500 0.654500
vt 0.024500 0.345500
vt 0.206100 0.095500
vt 0.500000 0.000000
vt 0.793900 0.904500
vn -0.491730 0.870130 0.032792
vn -0.546303 0.771650 0.325742
vn -0.153283 0.694585 0.702891
vn -0.224877 0.820989 0.524793
vn 0.289516 0.289166 0.912449
vn 0.194749 0.477409 0.856828
vn 0.632430 0.371099 0.679939
vn 0.725824 0.263793 0.635289
vn 0.917535 0.397128 0.020477
vn 0.886519 0.455627 0.080554
vn 0.799906 0.452921 -0.393717
vn 0.790688 0.390595 -0.471432
vn -0.633437 0.771648 -0.057593
vn -0.633439 0.771646 -0.057589
vn -0.810526 0.330876 0.483290
vn -0.810526 0.330875 0.483290
vn -0.384935 0.211779 0.898318
vn -0.384936 0.211780 0.898317
vn 0.221638 0.000001 0.975129
vn 0.221652 -0.000019 0.975126
vn 0.748233 0.106069 0.654902
vn 0.748236 0.106066 0.654900
vn 0.981388 0.170075 0.089174
vn 0.981376 0.170118 0.089221
vn 0.846401 0.170099 -0.504649
vn 0.846391 0.170072 -0.504675
vn -0.939796 0.330884 -0.085441
vn -0.834595 0.236231 0.497641
vn -0.834595 0.236232 0.497640
vn -0.388486 0.164775 0.906602
vn -0.388463 0.164761 0.906615
vn 0.221438 0.043943 0.974184
vn 0.221443 0.043940 0.974183
vn 0.750138 -0.078847 0.656564
vn 0.750111 -0.078823 0.656598
vn 0.984119 -0.153310 0.089471
vn 0.984120 -0.153325 0.089436
vn 0.848750 -0.153313 -0.506081
vn 0.848751 -0.153312 -0.506080
vn -0.967705 0.236233 -0.087978
vn -0.967711 0.236222 -0.087944
vn -0.858718 0.020381 0.512043
vn -0.858727 0.020372 0.512029
vn -0.393713 0.025988 0.918866
vn -0.393726 0.025996 0.918860
vn 0.221250 0.060591 0.973333
vn 0.221247 0.060592 0.973334
vn 0.877281 0.319085 0.358556
vn 0.877263 0.319109 0.358580
vn 0.983647 0.156355 0.089393
vn 0.983645 0.156361 0.089404
vn 0.844740 0.180869 -0.503688
vn 0.844742 0.180872 -0.503682
vn -0.994838 0.045921 -0.090490
vn -0.994843 0.045962 -0.090410
vn -0.858741 0.020401 0.512004
vn -0.858728 0.020421 0.512024
vn -0.393733 0.026040 0.918856
vn -0.393673 0.025986 0.918883
vn 0.221230 0.060583 0.973338
vn 0.221209 0.060599 0.973342
vn 0.747840 0.110570 0.654606
vn 0.747859 0.110551 0.654588
vn 0.983640 0.156370 0.089448
vn 0.983649 0.156335 0.089404
vn 0.844710 0.180824 -0.503754
vn 0.844739 0.180885 -0.503683
vn 0.387854 0.175472 -0.904864
vn 0.387690 0.175576 -0.904914
vn -0.994844 0.045972 -0.090400
vn -0.994839 0.045907 -0.090483
vn -0.858729 0.020360 0.512025
vn -0.858718 0.020377 0.512043
vn -0.393673 0.025974 0.918884
vn -0.393726 0.026020 0.918860
vn 0.221209 0.060617 0.973341
vn 0.221247 0.060588 0.973334
vn 0.747859 0.110540 0.654589
vn 0.747860 0.110540 0.654589
vn 0.983653 0.156315 0.089404
vn 0.983653 0.156315 0.089405
vn 0.844743 0.180859 -0.503685
vn 0.844744 0.180861 -0.503683
vn -0.981478 0.008014 -0.191408
vn -0.981500 0.008070 -0.191291
vn -0.378023 -0.013914 0.925691
vn -0.378030 -0.013917 0.925689
vn 0.086107 0.996255 0.007832
vn 0.086105 0.996255 0.007833
vn -0.162235 0.102924 -0.981370
vn -0.162280 0.102958 -0.981359
vn -0.569809 -0.820141 -0.051830
vn -0.569807 -0.820143 -0.051827
vn -0.147146 -0.025951 0.988774
vn -0.147155 -0.025962 0.988773
vn 0.189479 0.981733 0.017236
vn 0.189474 0.981734 0.017246
vn 0.065197 0.095674 -0.993275
vn 0.065193 0.095685 -0.993274
vn -0.313256 -0.949241 -0.028492
vn -0.313251 -0.949243 -0.028478
vn -0.228761 -0.021935 0.973236
vn -0.228742 -0.021911 0.973241
vn 0.317049 0.947970 0.028858
vn 0.317073 0.947964 0.028803
vn 0.152674 0.091518 -0.984030
vn 0.152673 0.091540 -0.984028
vn -0.432527 -0.900763 -0.039321
vn -0.432523 -0.900766 -0.039286
vn -0.214140 -0.022650 0.976540
vn -0.363832 -0.184612 0.912987
vn 0.624423 0.779024 0.056724
vn 0.565838 0.788166 0.242120
vn 0.295059 0.083065 -0.951862
vn 0.379766 0.246778 -0.891560
vn -0.613373 -0.787826 -0.055713
vn -0.587498 -0.771704 -0.243556
vn -0.152007 0.922526 0.354740
vn -0.152039 0.922533 0.354707
vn 0.967037 0.095482 0.236057
vn 0.967041 0.095445 0.236057
vn 0.267826 -0.733212 -0.625035
vn 0.267904 -0.733191 -0.625026
vn -0.819688 0.035053 -0.571737
vn -0.819722 0.035096 -0.571686
vn -0.261950 0.746930 0.611128
vn -0.261949 0.746930 0.611128
vn 0.896049 0.058046 0.440144
vn 0.896064 0.057996 0.440120
vn 0.261947 -0.746930 -0.611129
vn 0.261838 -0.746942 -0.611161
vn -0.918857 -0.000899 -0.394590
vn -0.918858 -0.000897 -0.394587
vn 0.689581 -0.400161 0.603614
vn 0.689604 -0.400194 0.603565
vn 0.891328 0.148902 -0.428208
vn 0.787395 0.190106 -0.586403
vn -0.185491 0.969141 -0.162357
vn -0.185508 0.969137 -0.162357
vn -0.219851 0.009272 0.975489
vn -0.215149 0.013912 0.976482
vn 0.690602 -0.397143 0.604439
vn 0.724423 -0.622536 0.296077
vn -0.237088 -0.034234 -0.970885
vn -0.348225 0.019770 -0.937202
vn -0.604246 0.595999 -0.528840
vn -0.702613 0.651042 -0.287192
vn 0.142523 0.073360 0.987069
vn 0.154198 0.028868 0.987618
vn 0.701220 -0.652805 0.286593
vn -0.263337 0.047402 -0.963539
vn -0.285728 0.062456 -0.956273
vn -0.627628 0.735030 -0.256542
vn -0.627649 0.735041 -0.256461
vn 0.193603 0.038271 0.980333
vn 0.186903 0.056865 0.980731
vn 0.688763 -0.668103 0.281502
vn 0.688763 -0.668101 0.281506
vn -0.284827 0.062905 -0.956513
vn -0.284824 0.062902 -0.956514
vn -0.688781 0.668111 -0.281440
vn -0.688761 0.668093 -0.281531
vn 0.181251 0.054767 0.981911
vn 0.181238 0.054788 0.981912
vn -0.858920 -0.000000 0.512111
vn -0.858920 0.000000 0.512110
vn -0.393866 0.000000 0.919168
vn -0.393865 -0.000000 0.919168
vn 0.221637 0.000000 0.975129
vn 0.752454 0.000000 0.658645
vn 0.995891 0.000000 0.090562
vn 0.858868 0.000000 -0.512197
vn -0.995897 0.000000 -0.090496
usemtl ecorse.002_ecorse.jpg
s off
f 1/1/1 2/2/1 3/3/1
f 4/4/2 1/1/2 3/3/2
f 2/2/3 5/5/3 6/6/3
f 6/6/4 3/3/4 2/2/4
f 5/5/5 7/7/5 8/8/5
f 8/8/6 6/6/6 5/5/6
f 7/9/7 9/10/7 10/11/7
f 10/11/8 8/12/8 7/9/8
f 9/10/9 11/13/9 12/14/9
f 12/14/10 10/11/10 9/10/10
f 11/13/11 13/15/11 14/16/11
f 14/16/12 12/14/12 11/13/12
f 15/17/13 1/1/13 4/4/13
f 4/4/14 16/18/14 15/17/14
f 4/4/15 3/3/15 17/19/15
f 17/19/16 18/20/16 4/4/16
f 3/3/17 6/6/17 19/21/17
f 19/21/18 17/19/18 3/3/18
f 6/6/19 8/8/19 20/22/19
f 20/22/20 19/21/20 6/6/20
f 8/12/21 10/11/21 21/23/21
f 21/23/22 20/24/22 8/12/22
f 10/11/23 12/14/23 22/25/23
f 22/25/24 21/23/24 10/11/24
f 12/14/25 14/16/25 23/26/25
f 23/26/26 22/25/26 12/14/26
f 16/18/27 4/4/27 18/20/27
f 18/20/27 24/27/27 16/18/27
f 18/20/28 17/19/28 25/28/28
f 25/28/29 26/29/29 18/20/29
f 17/19/30 19/21/30 27/30/30
f 27/30/31 25/28/31 17/19/31
f 19/21/32 20/22/32 28/31/32
f 28/31/33 27/30/33 19/21/33
f 20/24/34 21/23/34 29/32/34
f 29/32/35 28/33/35 20/24/35
f 21/23/36 22/25/36 30/34/36
f 30/34/37 29/32/37 21/23/37
f 22/25/38 23/26/38 31/35/38
f 31/35/39 30/34/39 22/25/39
f 24/27/40 18/20/40 26/29/40
f 26/29/41 32/36/41 24/27/41
f 25/28/42 33/37/42 34/38/42
f 34/38/43 26/29/43 25/28/43
f 25/28/44 27/30/44 35/39/44
f 35/39/45 33/37/45 25/28/45
f 27/30/46 28/31/46 36/40/46
f 36/40/47 35/39/47 27/30/47
f 37/33/48 38/32/48 39/41/48
f 39/41/49 40/42/49 37/33/49
f 29/32/50 30/34/50 41/43/50
f 41/43/51 42/41/51 29/32/51
f 30/34/52 31/35/52 43/44/52
f 43/44/53 41/43/53 30/34/53
f 26/29/54 34/38/54 44/45/54
f 44/45/55 32/36/55 26/29/55
f 45/46/56 46/47/56 47/48/56
f 47/48/57 48/49/57 45/46/57
f 49/50/58 46/47/58 45/46/58
f 45/46/59 50/51/59 49/50/59
f 51/52/60 49/50/60 50/51/60
f 50/51/61 52/53/61 51/52/61
f 53/54/62 51/55/62 52/56/62
f 52/56/63 54/57/63 53/54/63
f 55/58/64 53/54/64 54/57/64
f 54/57/65 56/59/65 55/58/65
f 57/60/66 55/58/66 56/59/66
f 56/59/67 58/61/67 57/60/67
f 59/62/68 60/63/68 61/60/68
f 61/60/69 62/61/69 59/62/69
f 48/49/70 47/48/70 63/64/70
f 63/64/71 64/65/71 48/49/71
f 33/37/72 45/46/72 48/49/72
f 48/49/73 34/38/73 33/37/73
f 50/51/74 45/46/74 33/37/74
f 33/37/75 35/39/75 50/51/75
f 52/53/76 50/51/76 35/39/76
f 35/39/77 36/40/77 52/53/77
f 54/57/78 52/56/78 36/42/78
f 36/42/79 42/41/79 54/57/79
f 56/59/80 54/57/80 42/41/80
f 42/41/81 41/43/81 56/59/81
f 58/61/82 56/59/82 41/43/82
f 41/43/83 43/44/83 58/61/83
f 65/38/84 66/49/84 67/65/84
f 67/65/85 68/45/85 65/38/85
f 34/38/86 48/49/86 69/49/86
f 69/49/87 70/38/87 34/38/87
f 48/49/88 64/65/88 71/65/88
f 71/65/89 69/49/89 48/49/89
f 64/65/90 44/45/90 72/45/90
f 72/45/91 71/65/91 64/65/91
f 44/45/92 34/38/92 70/38/92
f 70/38/93 72/45/93 44/45/93
f 70/38/94 69/49/94 73/49/94
f 73/49/95 74/38/95 70/38/95
f 69/49/96 71/65/96 75/65/96
f 75/65/97 73/49/97 69/49/97
f 71/65/98 72/45/98 76/45/98
f 76/45/99 75/65/99 71/65/99
f 72/45/100 70/38/100 74/38/100
f 74/38/101 76/45/101 72/45/101
f 74/38/102 73/49/102 77/49/102
f 77/49/103 78/38/103 74/38/103
f 73/49/104 75/65/104 79/65/104
f 79/65/105 77/49/105 73/49/105
f 75/65/106 76/45/106 80/45/106
f 80/45/107 79/65/107 75/65/107
f 76/45/108 74/38/108 78/38/108
f 78/38/109 80/45/109 76/45/109
f 78/38/110 77/49/110 66/49/110
f 66/49/111 65/38/111 78/38/111
f 77/49/112 79/65/112 67/65/112
f 67/65/113 66/49/113 77/49/113
f 79/65/114 80/45/114 68/45/114
f 68/45/115 67/65/115 79/65/115
f 80/45/116 78/38/116 65/38/116
f 65/38/117 68/45/117 80/45/117
f 81/66/118 57/67/118 82/60/118
f 82/60/119 83/63/119 81/66/119
f 57/60/120 58/61/120 84/61/120
f 84/61/121 82/60/121 57/60/121
f 58/61/122 85/62/122 86/62/122
f 86/62/123 84/61/123 58/61/123
f 85/62/124 81/63/124 83/63/124
f 83/63/125 86/62/125 85/62/125
f 83/63/126 82/60/126 61/60/126
f 61/60/127 60/63/127 83/63/127
f 82/60/128 84/61/128 62/61/128
f 62/61/129 61/60/129 82/60/129
f 84/61/130 86/62/130 59/62/130
f 59/62/131 62/61/131 84/61/131
f 86/62/132 83/63/132 60/63/132
f 60/63/133 59/62/133 86/62/133
f 28/33/134 29/32/134 87/32/134
f 87/32/135 88/33/135 28/33/135
f 29/32/136 42/41/136 89/41/136
f 89/41/137 87/32/137 29/32/137
f 42/41/138 36/42/138 90/42/138
f 90/42/139 89/41/139 42/41/139
f 36/40/140 28/31/140 88/33/140
f 88/33/141 90/42/141 36/40/141
f 88/33/142 87/32/142 91/32/142
f 91/32/143 92/33/143 88/33/143
f 87/32/144 89/41/144 93/41/144
f 93/41/145 91/32/145 87/32/145
f 89/41/146 90/42/146 94/42/146
f 94/42/147 93/41/147 89/41/147
f 90/42/148 88/33/148 92/33/148
f 92/33/149 94/42/149 90/42/149
f 92/33/150 91/32/150 95/32/150
f 95/32/150 96/33/150 92/33/150
f 91/32/151 93/41/151 97/41/151
f 97/41/152 95/32/152 91/32/152
f 93/41/153 94/42/153 98/42/153
f 98/42/154 97/41/154 93/41/154
f 94/42/155 92/33/155 96/33/155
f 96/33/156 98/42/156 94/42/156
f 96/33/157 95/32/157 38/32/157
f 38/32/158 37/33/158 96/33/158
f 95/32/159 97/41/159 39/41/159
f 39/41/160 38/32/160 95/32/160
f 97/41/161 98/42/161 40/42/161
f 40/42/162 39/41/162 97/41/162
f 98/42/163 96/33/163 37/33/163
f 37/33/164 40/42/164 98/42/164
f 47/48/165 46/47/165 99/68/165
f 99/68/166 100/69/166 47/48/166
f 46/47/167 49/50/167 101/70/167
f 101/70/168 99/68/168 46/47/168
f 49/50/169 51/52/169 102/71/169
f 102/71/169 101/70/169 49/50/169
f 51/55/170 53/54/170 103/72/170
f 103/72/170 102/71/170 51/55/170
f 53/54/171 55/58/171 104/73/171
f 104/73/171 103/72/171 53/54/171
f 55/58/172 57/60/172 105/67/172
f 105/67/172 104/73/172 55/58/172
f 63/64/173 47/48/173 100/69/173
f 100/69/173 106/74/173 63/64/173
