# Blender3D v248 OBJ File: map_Rome_allege.blend
# www.blender3d.org
mtllib momoshiro/cerisier02.mtl
v 1.022360 0.913760 -1.883720
v 1.087390 0.913760 -2.294810
v 0.575100 1.189850 -2.176290
v 0.670160 1.189850 -1.883720
v -0.536560 0.913760 -2.227240
v -0.648170 0.856750 -1.883720
v -0.499570 1.189850 -1.883720
v -0.404510 1.189850 -2.176290
v -0.536560 0.913760 -1.540210
v -0.404510 1.189850 -1.591160
v -0.244350 0.913760 -1.327900
v -0.155640 1.189850 -1.410340
v 0.457690 0.913760 -1.327900
v 0.326230 1.189850 -1.410340
v 0.910740 0.913760 -1.540210
v 0.575100 1.189850 -1.591160
v 0.458330 1.506550 -2.176290
v 0.553390 1.506550 -1.883720
v -0.442090 1.506550 -1.883720
v -0.347030 1.506550 -2.176290
v -0.347030 1.506550 -1.591160
v -0.098160 1.506550 -1.410340
v 0.209460 1.506550 -1.410340
v 0.458330 1.506550 -1.591160
v 0.267490 2.279890 -2.155270
v 0.355720 2.279890 -1.883720
v -0.568250 2.279890 -1.883720
v -0.480020 2.279890 -2.155270
v -0.480020 2.279890 -1.612180
v -0.249030 2.279890 -1.444350
v 0.036490 2.279890 -1.444350
v 0.267490 2.279890 -1.612180
v 0.260710 2.750730 -2.145060
v 0.339290 2.750730 -1.903230
v -1.440930 3.570420 -2.374380
v -1.520960 3.570420 -2.260240
v -1.468770 3.679710 -2.270590
v -1.401340 3.679710 -2.366740
v -0.483550 2.750730 -1.903230
v -0.404970 2.750730 -2.145060
v -0.404970 2.750730 -1.661410
v -0.199270 2.750730 -1.511950
v 0.055000 2.750730 -1.511950
v 0.260710 2.750730 -1.661410
v 0.256400 3.050620 -2.138550
v 0.252590 3.315640 -2.132800
v 0.319570 3.315640 -1.926640
v 0.328820 3.050620 -1.915660
v -0.381920 3.315640 -1.926640
v -0.314930 3.315640 -2.132800
v -0.357180 3.050620 -2.138550
v -0.429600 3.050620 -1.915660
v -0.314930 3.315640 -1.720480
v -0.357170 3.050620 -1.692770
v -0.641290 3.692720 -1.022740
v -0.627940 3.819010 -1.040870
v -0.692910 3.819010 -1.088070
v -0.713030 3.692720 -1.074860
v 0.066790 3.050620 -1.555010
v 0.077210 3.315640 -1.593060
v -0.139560 3.315640 -1.593060
v -0.167570 3.050620 -1.555010
v 0.256400 3.050620 -1.692770
v 0.252590 3.315640 -1.720480
v 1.600960 3.567550 -1.300150
v 1.609270 3.685260 -1.321270
v 1.575390 3.698900 -1.244860
v 1.563900 3.582460 -1.216580
v 0.451110 3.063000 -1.830180
v 0.458630 2.847570 -1.821260
v 0.404010 3.063000 -1.685240
v 0.407110 2.847570 -1.662710
v 0.767980 3.128690 -1.708650
v 0.773900 2.959180 -1.701630
v 0.730920 3.128690 -1.594600
v 0.733360 2.959180 -1.576880
v 1.084470 3.245530 -1.556920
v 1.088650 3.125820 -1.551960
v 1.058300 3.245530 -1.476380
v 1.060030 3.125820 -1.463860
v -0.448260 3.448510 -1.424790
v -0.383300 3.448510 -1.377590
v -0.468390 3.322220 -1.411580
v -0.396650 3.322220 -1.359460
v -0.249030 2.279890 -2.323100
v -0.485570 2.550740 -2.297430
v -0.372790 2.550740 -2.379360
v -0.432850 2.784770 -2.290250
v -0.199270 2.750730 -2.294520
v -0.337830 2.784770 -2.359280
v -0.766480 2.874520 -2.266510
v -0.686450 2.874520 -2.380640
v -0.714290 3.044450 -2.276850
v -0.646870 3.044450 -2.373010
v -1.079540 3.170370 -2.264120
v -0.999510 3.170370 -2.378250
v -1.027350 3.279650 -2.274460
v -0.959930 3.279650 -2.370620
v 0.252590 4.189370 -2.132800
v 0.319570 4.189370 -1.926640
v -0.381920 4.189370 -1.926640
v -0.314930 4.189370 -2.132800
v -0.314930 4.189370 -1.720480
v -0.139560 4.189370 -1.593060
v 0.077210 4.189370 -1.593060
v 0.252590 4.189370 -1.720480
vt 0.750000 0.200000
vt 0.850000 0.200000
vt 0.850000 0.400000
vt 0.750000 0.400000
vt 0.150000 0.200000
vt 0.250000 0.200000
vt 0.250000 0.400000
vt 0.150000 0.400000
vt 0.350000 0.200000
vt 0.350000 0.400000
vt 0.450000 0.200000
vt 0.450000 0.400000
vt 0.550000 0.200000
vt 0.550000 0.400000
vt 0.650000 0.200000
vt 0.650000 0.400000
vt 0.850000 0.600000
vt 0.750000 0.600000
vt 0.250000 0.600000
vt 0.150000 0.600000
vt 0.350000 0.600000
vt 0.450000 0.600000
vt 0.550000 0.600000
vt 0.650000 0.600000
vt 0.850000 0.800000
vt 0.750000 0.800000
vt 0.250000 0.800000
vt 0.150000 0.800000
vt 0.350000 0.800000
vt 0.450000 0.800000
vt 0.550000 0.800000
vt 0.650000 0.800000
vt 0.850000 0.890900
vt 0.750000 0.890900
vt 0.050000 0.800000
vt 0.150000 0.890900
vt 0.050000 0.890900
vt 0.250000 0.890900
vt 0.350000 0.890900
vt 0.450000 0.890900
vt 0.550000 0.890900
vt 0.650000 0.890900
vt 0.850000 0.948800
vt 0.850000 1.000000
vt 0.750000 1.000000
vt 0.750000 0.948800
vt 0.250000 1.000000
vt 0.150000 1.000000
vt 0.150000 0.948800
vt 0.250000 0.948800
vt 0.350000 1.000000
vt 0.350000 0.948800
vt 0.450000 0.948800
vt 0.450000 1.000000
vt 0.550000 0.948800
vt 0.550000 1.000000
vt 0.650000 0.948800
vt 0.650000 1.000000
vt 0.975500 0.345500
vt 0.793900 0.095500
vt 1.050000 0.890900
vt 1.050000 0.800000
vt 0.206100 0.904500
vt 0.500000 1.000000
vt 0.500000 0.000000
vt 0.206100 0.095500
vt 0.975500 0.654500
vt 0.793900 0.904500
vn 0.486759 0.870136 0.077000
vn 0.604906 0.771661 -0.196542
vn -0.890182 0.397121 -0.223316
vn -0.846583 0.455670 -0.275066
vn -0.867272 0.452933 0.206616
vn -0.875513 0.390577 0.284476
vn -0.539907 0.395363 0.743094
vn -0.539906 0.395361 0.743095
vn 0.000000 0.286115 0.958195
vn 0.350414 0.563985 0.747751
vn 0.521194 0.462362 0.717341
vn 0.604904 0.771658 0.196557
vn 0.604910 0.771655 0.196550
vn 0.897478 0.330908 -0.291603
vn -0.937199 0.170098 -0.304509
vn -0.937198 0.170098 -0.304509
vn -0.937196 0.170098 0.304518
vn -0.584480 0.106081 0.804444
vn 0.000000 0.000000 1.000000
vn 0.574460 0.211808 0.790653
vn 0.897476 0.330907 0.291612
vn 0.924144 0.236216 -0.300267
vn 0.924144 0.236216 -0.300266
vn -0.939814 -0.153318 -0.305358
vn -0.939814 -0.153318 -0.305357
vn -0.939811 -0.153318 0.305368
vn -0.939811 -0.153318 0.305367
vn -0.585967 -0.078848 0.806490
vn -0.585969 -0.078847 0.806489
vn 0.000000 0.043936 0.999034
vn 0.579764 0.164759 0.797953
vn 0.579749 0.164763 0.797963
vn 0.924141 0.236215 0.300276
vn 0.950853 0.020392 -0.308970
vn 0.950861 0.020379 -0.308947
vn -0.775998 0.319041 -0.544096
vn -0.775925 0.319116 -0.544156
vn -0.939364 0.156336 -0.305211
vn -0.939355 0.156348 -0.305233
vn -0.935369 0.180872 0.303924
vn -0.935364 0.180859 0.303948
vn -0.578688 0.175505 0.796441
vn -0.578674 0.175513 0.796449
vn 0.000000 0.142116 0.989850
vn 0.585264 0.092652 0.805532
vn 0.585254 0.092646 0.805540
vn 0.950043 0.045944 0.308719
vn 0.950050 0.045957 0.308695
vn 0.950866 0.020373 -0.308930
vn 0.950861 0.020388 -0.308948
vn -0.939350 0.156376 -0.305234
vn -0.939361 0.156356 -0.305211
vn -0.935364 0.180875 0.303939
vn -0.935361 0.180863 0.303953
vn -0.578633 0.175509 0.796480
vn -0.578647 0.175499 0.796472
vn 0.000000 0.142117 0.989850
vn 0.585254 0.092639 0.805540
vn 0.585258 0.092643 0.805537
vn 0.950059 0.045948 0.308668
vn 0.950054 0.045934 0.308685
vn 0.950861 0.020372 -0.308948
vn 0.950853 0.020391 -0.308970
vn -0.939366 0.156321 -0.305213
vn -0.939357 0.156338 -0.305234
vn -0.935360 0.180869 0.303953
vn -0.935361 0.180873 0.303948
vn -0.578680 0.175528 0.796442
vn -0.578686 0.175523 0.796439
vn 0.000000 0.142129 0.989848
vn 0.585258 0.092648 0.805537
vn 0.585264 0.092654 0.805532
vn 0.914662 0.007940 0.404142
vn 0.914639 0.007913 0.404195
vn 0.573799 -0.013908 -0.818878
vn 0.573745 -0.013880 -0.818916
vn -0.082193 0.996259 -0.026706
vn -0.082187 0.996259 -0.026708
vn -0.059300 0.102979 0.992914
vn -0.059289 0.102987 0.992914
vn 0.544103 -0.820178 0.176807
vn 0.544100 -0.820181 0.176802
vn 0.362656 -0.025912 -0.931563
vn 0.362657 -0.025914 -0.931562
vn -0.180966 0.981730 -0.058807
vn -0.180968 0.981729 -0.058805
vn -0.283747 0.095699 0.954112
vn -0.283761 0.095656 0.954112
vn 0.299157 -0.949239 0.097210
vn 0.299158 -0.949238 0.097217
vn 0.438755 -0.021880 -0.898340
vn 0.438770 -0.021900 -0.898332
vn -0.302793 0.947964 -0.098391
vn -0.302796 0.947963 -0.098388
vn -0.366952 0.091491 0.925730
vn -0.366951 0.091515 0.925728
vn 0.413062 -0.900756 0.134233
vn 0.413067 -0.900760 0.134189
vn 0.425248 -0.022640 -0.904794
vn 0.557127 -0.184601 -0.809649
vn -0.596288 0.779038 -0.193753
vn -0.498069 0.788173 -0.361539
vn -0.498677 0.083030 0.862802
vn -0.567919 0.246751 0.785227
vn 0.585760 -0.787829 0.190290
vn 0.518868 -0.771695 0.367780
vn 0.226868 0.922516 -0.312241
vn 0.226871 0.922517 -0.312236
vn -0.890669 0.095481 -0.444514
vn -0.890670 0.095471 -0.444514
vn -0.399707 -0.733214 0.550120
vn -0.399676 -0.733223 0.550130
vn 0.672571 0.035046 0.739202
vn 0.672551 0.035027 0.739221
vn 0.390837 0.746935 -0.537898
vn 0.390801 0.746930 -0.537931
vn -0.776197 0.058052 -0.627812
vn -0.776219 0.057997 -0.627791
vn -0.390809 -0.746930 0.537925
vn 0.808504 -0.000983 0.588491
vn -0.538682 -0.400177 -0.741405
vn -0.538639 -0.400134 -0.741459
vn -0.964062 0.148896 0.220032
vn -0.897840 0.190071 0.397185
vn 0.144890 0.969145 0.199410
vn 0.144861 0.969151 0.199402
vn 0.430574 0.009278 -0.902507
vn 0.426183 0.013945 -0.904529
vn -0.539417 -0.397087 -0.742531
vn -0.640769 -0.622518 -0.449319
vn 0.015971 -0.034256 0.999285
vn 0.131902 0.019794 0.991065
vn 0.471951 0.596008 0.649644
vn 0.621481 0.651073 0.435735
vn 0.079799 0.073375 -0.994107
vn 0.068520 0.028818 -0.997233
vn -0.620236 -0.652802 -0.434921
vn 0.043258 0.047437 0.997937
vn 0.066594 0.062422 0.995826
vn 0.555186 0.735017 0.389254
vn 0.028488 0.038215 -0.998863
vn 0.035155 0.056930 -0.997759
vn -0.609228 -0.668086 -0.427202
vn -0.609234 -0.668103 -0.427168
vn 0.065696 0.062854 0.995858
vn 0.065763 0.062905 0.995850
vn 0.609256 0.668086 0.427164
vn 0.609218 0.668069 0.427244
vn 0.040942 0.054827 -0.997656
vn 0.040983 0.054895 -0.997651
vn 0.951064 0.000000 -0.308994
vn -0.951050 0.000000 -0.309036
vn -0.951050 0.000000 0.309036
vn -0.587804 0.000000 0.809003
vn 0.587782 0.000000 0.809019
vn 0.951064 -0.000000 0.308994
usemtl ecorse_ecorse.jpg
s off
f 1/1/1 2/2/1 3/3/1
f 4/4/2 1/1/2 3/3/2
f 5/5/3 6/6/3 7/7/3
f 7/7/4 8/8/4 5/5/4
f 6/6/5 9/9/5 10/10/5
f 10/10/6 7/7/6 6/6/6
f 9/9/7 11/11/7 12/12/7
f 12/12/8 10/10/8 9/9/8
f 11/11/9 13/13/9 14/14/9
f 14/14/9 12/12/9 11/11/9
f 13/13/10 15/15/10 16/16/10
f 16/16/11 14/14/11 13/13/11
f 15/15/12 1/1/12 4/4/12
f 4/4/13 16/16/13 15/15/13
f 4/4/14 3/3/14 17/17/14
f 17/17/14 18/18/14 4/4/14
f 8/8/15 7/7/15 19/19/15
f 19/19/16 20/20/16 8/8/16
f 7/7/17 10/10/17 21/21/17
f 21/21/17 19/19/17 7/7/17
f 10/10/18 12/12/18 22/22/18
f 22/22/18 21/21/18 10/10/18
f 12/12/19 14/14/19 23/23/19
f 23/23/19 22/22/19 12/12/19
f 14/14/20 16/16/20 24/24/20
f 24/24/20 23/23/20 14/14/20
f 16/16/21 4/4/21 18/18/21
f 18/18/21 24/24/21 16/16/21
f 18/18/22 17/17/22 25/25/22
f 25/25/23 26/26/23 18/18/23
f 20/20/24 19/19/24 27/27/24
f 27/27/25 28/28/25 20/20/25
f 19/19/26 21/21/26 29/29/26
f 29/29/27 27/27/27 19/19/27
f 21/21/28 22/22/28 30/30/28
f 30/30/29 29/29/29 21/21/29
f 22/22/30 23/23/30 31/31/30
f 31/31/30 30/30/30 22/22/30
f 23/23/31 24/24/31 32/32/31
f 32/32/32 31/31/32 23/23/32
f 24/24/33 18/18/33 26/26/33
f 26/26/33 32/32/33 24/24/33
f 25/25/34 33/33/34 34/34/34
f 34/34/35 26/26/35 25/25/35
f 35/35/36 36/28/36 37/36/36
f 37/36/37 38/37/37 35/35/37
f 28/28/38 27/27/38 39/38/38
f 39/38/39 40/36/39 28/28/39
f 27/27/40 29/29/40 41/39/40
f 41/39/41 39/38/41 27/27/41
f 30/30/42 42/40/42 41/39/42
f 41/39/43 29/29/43 30/30/43
f 31/31/44 43/41/44 42/40/44
f 42/40/44 30/30/44 31/31/44
f 32/32/45 44/42/45 43/41/45
f 43/41/46 31/31/46 32/32/46
f 26/26/47 34/34/47 44/42/47
f 44/42/48 32/32/48 26/26/48
f 45/43/49 46/44/49 47/45/49
f 47/45/50 48/46/50 45/43/50
f 49/47/51 50/48/51 51/49/51
f 51/49/52 52/50/52 49/47/52
f 53/51/53 49/47/53 52/50/53
f 52/50/54 54/52/54 53/51/54
f 55/53/55 56/54/55 57/51/55
f 57/51/56 58/52/56 55/53/56
f 59/55/57 60/56/57 61/54/57
f 61/54/57 62/53/57 59/55/57
f 63/57/58 64/58/58 60/56/58
f 60/56/59 59/55/59 63/57/59
f 48/46/60 47/45/60 64/58/60
f 64/58/61 63/57/61 48/46/61
f 33/33/62 45/43/62 48/46/62
f 48/46/63 34/34/63 33/33/63
f 52/50/64 51/49/64 40/36/64
f 40/36/65 39/38/65 52/50/65
f 54/52/66 52/50/66 39/38/66
f 39/38/67 41/39/67 54/52/67
f 42/40/68 62/53/68 54/52/68
f 54/52/69 41/39/69 42/40/69
f 43/41/70 59/55/70 62/53/70
f 62/53/70 42/40/70 43/41/70
f 44/42/71 63/57/71 59/55/71
f 59/55/72 43/41/72 44/42/72
f 65/34/73 66/46/73 67/57/73
f 67/57/74 68/42/74 65/34/74
f 34/34/75 48/46/75 69/46/75
f 69/46/76 70/34/76 34/34/76
f 48/46/77 63/57/77 71/57/77
f 71/57/78 69/46/78 48/46/78
f 63/57/79 44/42/79 72/42/79
f 72/42/80 71/57/80 63/57/80
f 44/42/81 34/34/81 70/34/81
f 70/34/82 72/42/82 44/42/82
f 70/34/83 69/46/83 73/46/83
f 73/46/84 74/34/84 70/34/84
f 69/46/85 71/57/85 75/57/85
f 75/57/86 73/46/86 69/46/86
f 71/57/87 72/42/87 76/42/87
f 76/42/88 75/57/88 71/57/88
f 72/42/89 70/34/89 74/34/89
f 74/34/90 76/42/90 72/42/90
f 74/34/91 73/46/91 77/46/91
f 77/46/92 78/34/92 74/34/92
f 73/46/93 75/57/93 79/57/93
f 79/57/94 77/46/94 73/46/94
f 75/57/95 76/42/95 80/42/95
f 80/42/96 79/57/96 75/57/96
f 76/42/97 74/34/97 78/34/97
f 78/34/98 80/42/98 76/42/98
f 78/34/99 77/46/99 66/46/99
f 66/46/100 65/34/100 78/34/100
f 77/46/101 79/57/101 67/57/101
f 67/57/102 66/46/102 77/46/102
f 79/57/103 80/42/103 68/42/103
f 68/42/104 67/57/104 79/57/104
f 80/42/105 78/34/105 65/34/105
f 65/34/106 68/42/106 80/42/106
f 61/59/107 53/60/107 81/51/107
f 81/51/108 82/54/108 61/59/108
f 53/51/109 54/52/109 83/52/109
f 83/52/110 81/51/110 53/51/110
f 54/52/111 62/53/111 84/53/111
f 84/53/112 83/52/112 54/52/112
f 62/53/113 61/54/113 82/54/113
f 82/54/114 84/53/114 62/53/114
f 82/54/115 81/51/115 57/51/115
f 57/51/116 56/54/116 82/54/116
f 81/51/117 83/52/117 58/52/117
f 58/52/118 57/51/118 81/51/118
f 83/52/119 84/53/119 55/53/119
f 55/53/119 58/52/119 83/52/119
f 84/53/120 82/54/120 56/54/120
f 56/54/120 55/53/120 84/53/120
f 85/35/121 28/28/121 86/28/121
f 86/28/122 87/35/122 85/35/122
f 28/28/123 40/36/123 88/36/123
f 88/36/124 86/28/124 28/28/124
f 40/36/125 89/37/125 90/37/125
f 90/37/126 88/36/126 40/36/126
f 89/61/127 85/62/127 87/35/127
f 87/35/128 90/37/128 89/61/128
f 87/35/129 86/28/129 91/28/129
f 91/28/130 92/35/130 87/35/130
f 86/28/131 88/36/131 93/36/131
f 93/36/132 91/28/132 86/28/132
f 88/36/133 90/37/133 94/37/133
f 94/37/134 93/36/134 88/36/134
f 90/37/135 87/35/135 92/35/135
f 92/35/136 94/37/136 90/37/136
f 92/35/137 91/28/137 95/28/137
f 95/28/137 96/35/137 92/35/137
f 91/28/138 93/36/138 97/36/138
f 97/36/139 95/28/139 91/28/139
f 93/36/140 94/37/140 98/37/140
f 98/37/140 97/36/140 93/36/140
f 94/37/141 92/35/141 96/35/141
f 96/35/142 98/37/142 94/37/142
f 96/35/143 95/28/143 36/28/143
f 36/28/144 35/35/144 96/35/144
f 95/28/145 97/36/145 37/36/145
f 37/36/146 36/28/146 95/28/146
f 97/36/147 98/37/147 38/37/147
f 38/37/148 37/36/148 97/36/148
f 98/37/149 96/35/149 35/35/149
f 35/35/150 38/37/150 98/37/150
f 47/45/151 46/44/151 99/63/151
f 99/63/151 100/64/151 47/45/151
f 50/48/152 49/47/152 101/65/152
f 101/65/152 102/66/152 50/48/152
f 49/47/153 53/51/153 103/60/153
f 103/60/153 101/65/153 49/47/153
f 53/60/154 61/59/154 104/59/154
f 104/59/154 103/60/154 53/60/154
f 61/54/19 60/56/19 105/67/19
f 105/67/19 104/59/19 61/54/19
f 60/56/155 64/58/155 106/68/155
f 106/68/155 105/67/155 60/56/155
f 64/58/156 47/45/156 100/64/156
f 100/64/156 106/68/156 64/58/156
