# Blender3D v248 OBJ File: map_Rome_allege.blend
# www.blender3d.org
mtllib momoshiro/sol.mtl
v 4.423890 -3.118938 -0.000000
v 4.007150 -3.118938 -1.282589
v 5.445680 0.066321 -1.754141
v 6.015634 0.066321 0.000000
v -3.818402 -3.118938 -1.282589
v -4.235142 -3.118938 -0.000000
v -5.826896 0.066321 0.000000
v -5.256941 0.066321 -1.754141
v -3.818402 -3.118938 1.282589
v -5.256941 0.066321 1.754141
v -2.727366 -3.118938 2.075273
v -3.764784 0.066321 2.838253
v 2.916114 -3.118938 2.075273
v 3.953522 0.066321 2.838253
v 4.007150 -3.118938 1.282589
v 5.445680 0.066321 1.754131
v 5.445680 0.132633 -1.754141
v 6.015634 0.132633 0.000000
v -5.826896 0.132633 0.000000
v -5.256941 0.132633 -1.754141
v -5.256941 0.132633 1.754141
v -3.764784 0.132633 2.838253
v 3.953522 0.132633 2.838253
v 5.445680 0.132633 1.754131
v 5.652781 0.339048 -1.822024
v 6.244790 0.339048 0.000000
v -6.056042 0.339048 0.000000
v -5.464033 0.339048 -1.822024
v -5.464033 0.339048 1.822024
v -3.914129 0.339048 2.948096
v 4.102877 0.339048 2.948096
v 5.652781 0.339048 1.822024
v 4.398881 0.339048 -0.911012
v 4.694885 0.339048 0.000000
v -4.506137 0.339048 0.000000
v -4.210134 0.339048 -0.911012
v -4.210134 0.339048 0.911012
v -3.435186 0.339048 1.474043
v 3.623924 0.339048 1.474043
v 4.398881 0.339048 0.911012
v -3.435186 0.339048 -1.474043
v 3.623924 0.339048 -1.474043
vt 0.944200 0.444800
vt 0.944200 0.505500
vt 0.765400 0.532400
vt 0.793800 0.444700
vt 0.050300 0.506000
vt 0.050300 0.444100
vt 0.203900 0.445800
vt 0.233500 0.534500
vt 0.049700 0.382200
vt 0.231800 0.357200
vt 0.669300 0.743200
vt 0.619900 0.738400
vt 0.680800 0.598500
vt 0.748500 0.605000
vt 0.381600 0.735900
vt 0.317000 0.597600
vt 0.332300 0.741900
vt 0.249600 0.605900
vt 0.944200 0.384100
vt 0.765500 0.357700
vt 0.762100 0.531400
vt 0.790100 0.444700
vt 0.206700 0.444800
vt 0.236000 0.533000
vt 0.235100 0.357800
vt 0.681100 0.595500
vt 0.748700 0.602000
vt 0.316700 0.594600
vt 0.249200 0.602900
vt 0.762200 0.358800
vt 0.217800 0.445100
vt 0.245100 0.529000
vt 0.235200 0.532300
vt 0.206900 0.445100
vt 0.752000 0.528200
vt 0.779000 0.445100
vt 0.789800 0.445100
vt 0.761800 0.531400
vt 0.752000 0.362000
vt 0.761800 0.358800
vt 0.754400 0.541300
vt 0.687500 0.590800
vt 0.682200 0.579400
vt 0.751700 0.528000
vt 0.316300 0.580500
vt 0.681400 0.580500
vt 0.310300 0.591400
vt 0.242300 0.542000
vt 0.244900 0.528600
vt 0.315500 0.579900
vt 0.245100 0.361200
vt 0.235200 0.358000
vt 0.218100 0.445300
vt 0.245100 0.362300
vt 0.302200 0.403800
vt 0.288700 0.445300
vt 0.751400 0.362300
vt 0.778400 0.445300
vt 0.707800 0.445300
vt 0.694300 0.403800
vt 0.751400 0.528300
vt 0.694300 0.486800
vt 0.680800 0.579600
vt 0.659000 0.512500
vt 0.315700 0.579600
vt 0.337500 0.512500
vt 0.245100 0.528300
vt 0.302200 0.486800
vt 0.659000 0.378200
vt 0.337500 0.378200
vn 0.858980 -0.429252 -0.279100
vn 0.858980 -0.429251 -0.279099
vn -0.858979 -0.429253 -0.279100
vn -0.858979 -0.429254 -0.279099
vn -0.858979 -0.429254 0.279100
vn -0.858979 -0.429253 0.279099
vn -0.548495 -0.359475 0.754938
vn -0.548493 -0.359475 0.754939
vn 0.000000 -0.232945 0.972490
vn 0.548495 -0.359472 0.754939
vn 0.548497 -0.359474 0.754937
vn 0.858980 -0.429251 0.279100
vn 0.858980 -0.429251 0.279101
vn 0.951057 0.000000 -0.309017
vn -0.951057 0.000000 -0.309017
vn -0.951057 0.000000 0.309017
vn -0.587784 0.000000 0.809018
vn 0.000000 0.000000 1.000000
vn 0.587788 0.000000 0.809015
vn 0.587787 0.000000 0.809015
vn 0.951056 -0.000000 0.309018
vn 0.653989 -0.726047 -0.212494
vn 0.653993 -0.726044 -0.212494
vn -0.654009 -0.726028 -0.212500
vn -0.654005 -0.726032 -0.212498
vn -0.654004 -0.726032 0.212499
vn -0.654009 -0.726028 0.212499
vn -0.446578 -0.650198 0.614664
vn -0.446582 -0.650190 0.614668
vn 0.000000 -0.469771 0.882788
vn 0.446569 -0.650221 0.614645
vn 0.446573 -0.650210 0.614654
vn 0.653993 -0.726043 0.212496
vn 0.653985 -0.726052 0.212491
vn 0.000000 1.000000 0.000000
usemtl ground_sol.ppm
s off
f 1/1/1 2/2/1 3/3/1
f 4/4/2 1/1/2 3/3/2
f 5/5/3 6/6/3 7/7/3
f 7/7/4 8/8/4 5/5/4
f 6/6/5 9/9/5 10/10/5
f 10/10/6 7/7/6 6/6/6
f 9/11/7 11/12/7 12/13/7
f 12/13/8 10/14/8 9/11/8
f 11/12/9 13/15/9 14/16/9
f 14/16/9 12/13/9 11/12/9
f 13/15/10 15/17/10 16/18/10
f 16/18/11 14/16/11 13/15/11
f 15/19/12 1/1/12 4/4/12
f 4/4/13 16/20/13 15/19/13
f 4/4/14 3/3/14 17/21/14
f 17/21/14 18/22/14 4/4/14
f 8/8/15 7/7/15 19/23/15
f 19/23/15 20/24/15 8/8/15
f 7/7/16 10/10/16 21/25/16
f 21/25/16 19/23/16 7/7/16
f 10/14/17 12/13/17 22/26/17
f 22/26/17 21/27/17 10/14/17
f 12/13/18 14/16/18 23/28/18
f 23/28/18 22/26/18 12/13/18
f 14/16/19 16/18/19 24/29/19
f 24/29/20 23/28/20 14/16/20
f 16/20/21 4/4/21 18/22/21
f 18/22/21 24/30/21 16/20/21
f 18/31/22 17/32/22 25/33/22
f 25/33/23 26/34/23 18/31/23
f 20/35/24 19/36/24 27/37/24
f 27/37/25 28/38/25 20/35/25
f 19/36/26 21/39/26 29/40/26
f 29/40/27 27/37/27 19/36/27
f 21/41/28 22/42/28 30/43/28
f 30/43/29 29/44/29 21/41/29
f 22/26/30 23/28/30 31/45/30
f 31/45/30 30/46/30 22/26/30
f 23/47/31 24/48/31 32/49/31
f 32/49/32 31/50/32 23/47/32
f 24/51/33 18/31/33 26/34/33
f 26/34/34 32/52/34 24/51/34
f 26/53/35 25/54/35 33/55/35
f 33/55/35 34/56/35 26/53/35
f 28/57/35 27/58/35 35/59/35
f 35/59/35 36/60/35 28/57/35
f 27/58/35 29/61/35 37/62/35
f 37/62/35 35/59/35 27/58/35
f 29/61/35 30/63/35 38/64/35
f 38/64/35 37/62/35 29/61/35
f 30/63/35 31/65/35 39/66/35
f 39/66/35 38/64/35 30/63/35
f 31/65/35 32/67/35 40/68/35
f 40/68/35 39/66/35 31/65/35
f 32/67/35 26/53/35 34/56/35
f 34/56/35 40/68/35 32/67/35
f 38/64/35 39/66/35 40/68/35
f 37/62/35 38/64/35 40/68/35
f 35/59/35 37/62/35 40/68/35
f 36/60/35 35/59/35 40/68/35
f 41/69/35 36/60/35 40/68/35
f 42/70/35 41/69/35 40/68/35
f 33/55/35 42/70/35 40/68/35
f 34/56/35 33/55/35 40/68/35
