# Blender3D v248 OBJ File: map_Rome_allege2.blend
# www.blender3d.org
mtllib momoshiro/tonneaux.mtl
v -2.172246 1.168959 -2.003375
v -2.218096 1.342169 -1.914505
v -2.072976 1.360599 -1.851625
v -2.022256 1.168959 -1.949955
v -2.309776 1.342169 -1.736755
v -2.174416 1.360599 -1.654965
v -2.355616 1.168959 -1.647885
v -2.225136 1.168959 -1.556635
v -2.309776 0.995749 -1.736755
v -2.174416 0.977319 -1.654965
v -2.218096 0.995749 -1.914505
v -2.072976 0.977319 -1.851625
v -1.909086 1.360599 -1.767085
v -1.858366 1.168959 -1.865415
v -2.010536 1.360599 -1.570425
v -2.061256 1.168959 -1.472095
v -2.010536 0.977319 -1.570425
v -1.909086 0.977319 -1.767085
v -1.773726 1.342169 -1.685295
v -1.727886 1.168959 -1.774165
v -1.865416 1.342169 -1.507545
v -1.911256 1.168959 -1.418675
v -1.865416 0.995749 -1.507545
v -1.773726 0.995749 -1.685295
v -1.303196 0.979879 -1.943965
v -1.403196 0.979879 -2.117175
v -1.392546 1.137679 -2.135605
v -1.281906 1.137679 -1.943965
v -1.603196 0.979879 -2.117175
v -1.613836 1.137679 -2.135605
v -1.703196 0.979879 -1.943965
v -1.724476 1.137679 -1.943965
v -1.603196 0.979879 -1.770765
v -1.613836 1.137679 -1.752335
v -1.403196 0.979879 -1.770765
v -1.392546 1.137679 -1.752335
v -1.392546 1.322089 -2.135605
v -1.281906 1.322089 -1.943965
v -1.613836 1.322089 -2.135605
v -1.724476 1.322089 -1.943965
v -1.613836 1.322089 -1.752335
v -1.392546 1.322089 -1.752335
v -1.403196 1.479879 -2.117175
v -1.303196 1.479879 -1.943965
v -1.603196 1.479879 -2.117175
v -1.703196 1.479879 -1.943965
v -1.603196 1.479879 -1.770765
v -1.403196 1.479879 -1.770765
v 4.741124 0.884989 1.636415
v 4.641124 0.884989 1.463205
v 4.651764 1.042789 1.444775
v 4.762414 1.042789 1.636415
v 4.441124 0.884989 1.463205
v 4.430484 1.042789 1.444775
v 4.341124 0.884989 1.636415
v 4.319844 1.042789 1.636415
v 4.441124 0.884989 1.809615
v 4.430484 1.042789 1.828055
v 4.641124 0.884989 1.809615
v 4.651764 1.042789 1.828055
v 4.651764 1.227199 1.444775
v 4.762414 1.227199 1.636415
v 4.430484 1.227199 1.444775
v 4.319844 1.227199 1.636415
v 4.430484 1.227199 1.828055
v 4.651764 1.227199 1.828055
v 4.641124 1.384989 1.463205
v 4.741124 1.384989 1.636415
v 4.441124 1.384989 1.463205
v 4.341124 1.384989 1.636415
v 4.441124 1.384989 1.809615
v 4.641124 1.384989 1.809615
v 4.526714 0.374529 1.535735
v 4.426714 0.374529 1.362535
v 4.437355 0.532329 1.344105
v 4.547994 0.532329 1.535735
v 4.226715 0.374529 1.362535
v 4.216064 0.532329 1.344105
v 4.126714 0.374529 1.535735
v 4.105424 0.532329 1.535735
v 4.226715 0.374529 1.708945
v 4.216064 0.532329 1.727375
v 4.426714 0.374529 1.708945
v 4.437355 0.532329 1.727375
v 4.437355 0.716739 1.344105
v 4.547994 0.716739 1.535735
v 4.216064 0.716739 1.344105
v 4.105424 0.716739 1.535735
v 4.216064 0.716739 1.727375
v 4.437355 0.716739 1.727375
v 4.426714 0.874529 1.362535
v 4.526714 0.874529 1.535735
v 4.226715 0.874529 1.362535
v 4.126714 0.874529 1.535735
v 4.226715 0.874529 1.708945
v 4.426714 0.874529 1.708945
v 4.988824 0.374529 1.636415
v 4.888824 0.374529 1.463205
v 4.899464 0.532329 1.444775
v 5.010114 0.532329 1.636415
v 4.688824 0.374529 1.463205
v 4.678184 0.532329 1.444775
v 4.588824 0.374529 1.636415
v 4.567544 0.532329 1.636415
v 4.688824 0.374529 1.809615
v 4.678184 0.532329 1.828055
v 4.888824 0.374529 1.809615
v 4.899464 0.532329 1.828055
v 4.899464 0.716739 1.444775
v 5.010114 0.716739 1.636415
v 4.678184 0.716739 1.444775
v 4.567544 0.716739 1.636415
v 4.678184 0.716739 1.828055
v 4.899464 0.716739 1.828055
v 4.888824 0.874529 1.463205
v 4.988824 0.874529 1.636415
v 4.688824 0.874529 1.463205
v 4.588824 0.874529 1.636415
v 4.688824 0.874529 1.809615
v 4.888824 0.874529 1.809615
vt 0.750000 0.000000
vt 0.916700 0.000000
vt 0.916700 0.333300
vt 0.750000 0.333300
vt 1.083300 0.000000
vt 1.083300 0.333300
vt 0.083300 0.000000
vt 0.250000 0.000000
vt 0.250000 0.333300
vt 0.083300 0.333300
vt 0.416700 0.000000
vt 0.416700 0.333300
vt 0.583300 0.000000
vt 0.583300 0.333300
vt 0.916700 0.666700
vt 0.750000 0.666700
vt 1.083300 0.666700
vt 0.250000 0.666700
vt 0.083300 0.666700
vt 0.416700 0.666700
vt 0.583300 0.666700
vt 0.916700 1.000000
vt 0.750000 1.000000
vt 1.083300 1.000000
vt 0.250000 1.000000
vt 0.083300 1.000000
vt 0.416700 1.000000
vt 0.583300 1.000000
vt 0.933000 0.250000
vt 0.500000 0.000000
vt 0.067000 0.250000
vt 0.067000 0.750000
vt 0.500000 1.000000
vt 0.933000 0.750000
vn 0.291220 0.496611 -0.817660
vn 0.291216 0.496613 -0.817661
vn -0.103103 0.993248 -0.053179
vn -0.103098 0.993249 -0.053180
vn -0.497439 0.496598 0.711298
vn -0.497415 0.496615 0.711303
vn -0.497418 -0.496599 0.711312
vn -0.497434 -0.496614 0.711290
vn -0.103100 -0.993249 -0.053177
vn -0.103102 -0.993248 -0.053182
vn 0.291217 -0.496611 -0.817662
vn 0.291219 -0.496613 -0.817659
vn 0.397021 0.499989 -0.769665
vn 0.397019 0.499990 -0.769666
vn 0.000000 1.000000 0.000000
vn -0.397039 0.499990 0.769656
vn -0.397038 0.499990 0.769656
vn -0.397038 -0.499990 0.769656
vn -0.397039 -0.499990 0.769656
vn 0.000000 -1.000000 0.000000
vn 0.397020 -0.499989 -0.769666
vn 0.397021 -0.499990 -0.769665
vn 0.497414 0.496616 -0.711303
vn 0.497440 0.496597 -0.711298
vn 0.103096 0.993249 0.053184
vn 0.103101 0.993248 0.053183
vn -0.291199 0.496613 0.817667
vn -0.291225 0.496598 0.817666
vn -0.291220 -0.496614 0.817659
vn -0.291202 -0.496597 0.817675
vn 0.103100 -0.993248 0.053185
vn 0.103098 -0.993249 0.053182
vn 0.497435 -0.496614 -0.711290
vn 0.497418 -0.496599 -0.711312
vn -0.888736 0.000000 -0.458419
vn -0.888747 -0.000064 -0.458399
vn -0.888730 0.000000 -0.458432
vn -0.888747 0.000064 -0.458399
vn 0.888726 0.000012 0.458439
vn 0.888726 -0.000012 0.458439
vn 0.888729 0.000000 0.458432
vn 0.888737 0.000000 0.458417
vn 0.860179 -0.116055 -0.496611
vn 0.860180 -0.116053 -0.496610
vn 0.000000 -0.116006 -0.993248
vn 0.000000 -0.116006 -0.993249
vn -0.860185 -0.115999 -0.496614
vn -0.860186 -0.116001 -0.496613
vn -0.860173 -0.116002 0.496635
vn -0.860175 -0.115998 0.496632
vn 0.000000 -0.116005 0.993249
vn 0.860168 -0.116051 0.496633
vn 0.860169 -0.116056 0.496629
vn 0.866032 0.000000 -0.499988
vn 0.000000 0.000000 -1.000000
vn -0.866032 0.000000 -0.499988
vn -0.866021 0.000000 0.500008
vn 0.000000 0.000000 1.000000
vn 0.866021 0.000000 0.500008
vn 0.860179 0.116062 -0.496609
vn 0.860179 0.116060 -0.496611
vn 0.000000 0.116014 -0.993248
vn -0.860185 0.116007 -0.496612
vn -0.860184 0.116009 -0.496613
vn -0.860174 0.116009 0.496632
vn -0.860172 0.116005 0.496635
vn 0.000000 0.116012 0.993248
vn 0.860168 0.116059 0.496629
vn 0.860166 0.116063 0.496632
vn 0.860186 -0.115999 -0.496614
vn 0.860161 -0.116050 -0.496644
vn 0.000000 -0.116005 -0.993249
vn -0.860186 -0.115999 -0.496614
vn -0.860186 -0.115999 -0.496613
vn -0.860170 -0.116032 0.496633
vn -0.860186 -0.115999 0.496613
vn 0.000000 -0.116067 0.993241
vn 0.860168 -0.116051 0.496632
vn 0.860163 -0.116033 0.496645
vn 0.866012 0.000000 -0.500023
vn -0.866032 0.000000 -0.499989
vn -0.866032 0.000000 0.499989
vn 0.866012 0.000000 0.500023
vn 0.860165 0.116009 -0.496646
vn 0.860179 0.116060 -0.496610
vn 0.000000 0.116012 -0.993248
vn -0.860185 0.116006 -0.496613
vn -0.860185 0.116007 -0.496613
vn -0.860182 0.116038 0.496611
vn -0.860172 0.116004 0.496635
vn 0.000000 0.116074 0.993241
vn 0.860160 0.116057 0.496644
vn 0.860169 0.116039 0.496633
vn 0.860173 -0.116003 -0.496635
vn 0.860176 -0.115997 -0.496631
vn -0.860166 -0.116053 -0.496634
vn -0.860168 -0.116060 -0.496629
vn -0.860179 -0.116058 0.496612
vn -0.860180 -0.116055 0.496610
vn 0.000000 -0.116004 0.993249
vn 0.860186 -0.115999 0.496613
vn 0.860186 -0.116001 0.496612
vn 0.866022 0.000000 -0.500007
vn -0.866021 0.000000 -0.500008
vn 0.866033 0.000000 0.499987
vn 0.860174 0.116010 -0.496631
vn 0.860173 0.116004 -0.496635
vn -0.860168 0.116061 -0.496629
vn -0.860165 0.116067 -0.496633
vn -0.860179 0.116065 0.496609
vn -0.860178 0.116062 0.496612
vn 0.000000 0.116011 0.993248
vn 0.860186 0.116006 0.496611
vn 0.860185 0.116009 0.496613
vn 0.860185 -0.115999 -0.496614
vn 0.860160 -0.116052 -0.496645
vn 0.860168 -0.116053 0.496632
vn 0.860162 -0.116033 0.496647
vn 0.866012 0.000000 -0.500024
vn 0.866012 0.000000 0.500024
vn 0.860164 0.116009 -0.496648
vn 0.860179 0.116062 -0.496610
vn -0.860173 0.116004 0.496635
vn 0.860159 0.116060 0.496645
usemtl wood.001_wood.jpg
s off
f 1/1/1 2/2/1 3/3/1
f 4/4/2 1/1/2 3/3/2
f 2/2/3 5/5/3 6/6/3
f 6/6/4 3/3/4 2/2/4
f 5/7/5 7/8/5 8/9/5
f 8/9/6 6/10/6 5/7/6
f 7/8/7 9/11/7 10/12/7
f 10/12/8 8/9/8 7/8/8
f 9/11/9 11/13/9 12/14/9
f 12/14/10 10/12/10 9/11/10
f 11/13/11 1/1/11 4/4/11
f 4/4/12 12/14/12 11/13/12
f 4/4/13 3/3/13 13/15/13
f 13/15/14 14/16/14 4/4/14
f 3/3/15 6/6/15 15/17/15
f 15/17/15 13/15/15 3/3/15
f 6/10/16 8/9/16 16/18/16
f 16/18/17 15/19/17 6/10/17
f 8/9/18 10/12/18 17/20/18
f 17/20/19 16/18/19 8/9/19
f 10/12/20 12/14/20 18/21/20
f 18/21/20 17/20/20 10/12/20
f 12/14/21 4/4/21 14/16/21
f 14/16/22 18/21/22 12/14/22
f 14/16/23 13/15/23 19/22/23
f 19/22/24 20/23/24 14/16/24
f 13/15/25 15/17/25 21/24/25
f 21/24/26 19/22/26 13/15/26
f 15/19/27 16/18/27 22/25/27
f 22/25/28 21/26/28 15/19/28
f 16/18/29 17/20/29 23/27/29
f 23/27/30 22/25/30 16/18/30
f 17/20/31 18/21/31 24/28/31
f 24/28/32 23/27/32 17/20/32
f 18/21/33 14/16/33 20/23/33
f 20/23/34 24/28/34 18/21/34
f 9/29/35 7/30/35 5/31/35
f 2/32/36 1/33/36 5/31/36
f 5/31/37 1/33/37 9/29/37
f 9/29/38 1/33/38 11/34/38
f 19/32/39 21/31/39 22/30/39
f 22/30/40 23/29/40 24/34/40
f 19/32/41 22/30/41 24/34/41
f 20/33/42 19/32/42 24/34/42
f 25/1/43 26/2/43 27/3/43
f 27/3/44 28/4/44 25/1/44
f 26/2/45 29/5/45 30/6/45
f 30/6/46 27/3/46 26/2/46
f 29/7/47 31/8/47 32/9/47
f 32/9/48 30/10/48 29/7/48
f 31/8/49 33/11/49 34/12/49
f 34/12/50 32/9/50 31/8/50
f 33/11/51 35/13/51 36/14/51
f 36/14/51 34/12/51 33/11/51
f 35/13/52 25/1/52 28/4/52
f 28/4/53 36/14/53 35/13/53
f 28/4/54 27/3/54 37/15/54
f 37/15/54 38/16/54 28/4/54
f 27/3/55 30/6/55 39/17/55
f 39/17/55 37/15/55 27/3/55
f 30/10/56 32/9/56 40/18/56
f 40/18/56 39/19/56 30/10/56
f 32/9/57 34/12/57 41/20/57
f 41/20/57 40/18/57 32/9/57
f 34/12/58 36/14/58 42/21/58
f 42/21/58 41/20/58 34/12/58
f 36/14/59 28/4/59 38/16/59
f 38/16/59 42/21/59 36/14/59
f 38/16/60 37/15/60 43/22/60
f 43/22/61 44/23/61 38/16/61
f 37/15/62 39/17/62 45/24/62
f 45/24/62 43/22/62 37/15/62
f 39/19/63 40/18/63 46/25/63
f 46/25/64 45/26/64 39/19/64
f 40/18/65 41/20/65 47/27/65
f 47/27/66 46/25/66 40/18/66
f 41/20/67 42/21/67 48/28/67
f 48/28/67 47/27/67 41/20/67
f 42/21/68 38/16/68 44/23/68
f 44/23/69 48/28/69 42/21/69
f 33/29/20 31/30/20 29/31/20
f 29/31/20 26/32/20 25/33/20
f 33/29/20 29/31/20 25/33/20
f 35/34/20 33/29/20 25/33/20
f 43/32/15 45/31/15 46/30/15
f 46/30/15 47/29/15 48/34/15
f 43/32/15 46/30/15 48/34/15
f 44/33/15 43/32/15 48/34/15
f 49/1/70 50/2/70 51/3/70
f 51/3/71 52/4/71 49/1/71
f 50/2/72 53/5/72 54/6/72
f 54/6/72 51/3/72 50/2/72
f 53/7/73 55/8/73 56/9/73
f 56/9/74 54/10/74 53/7/74
f 55/8/75 57/11/75 58/12/75
f 58/12/76 56/9/76 55/8/76
f 57/11/77 59/13/77 60/14/77
f 60/14/77 58/12/77 57/11/77
f 59/13/78 49/1/78 52/4/78
f 52/4/79 60/14/79 59/13/79
f 52/4/80 51/3/80 61/15/80
f 61/15/80 62/16/80 52/4/80
f 51/3/55 54/6/55 63/17/55
f 63/17/55 61/15/55 51/3/55
f 54/10/81 56/9/81 64/18/81
f 64/18/81 63/19/81 54/10/81
f 56/9/82 58/12/82 65/20/82
f 65/20/82 64/18/82 56/9/82
f 58/12/58 60/14/58 66/21/58
f 66/21/58 65/20/58 58/12/58
f 60/14/83 52/4/83 62/16/83
f 62/16/83 66/21/83 60/14/83
f 62/16/84 61/15/84 67/22/84
f 67/22/85 68/23/85 62/16/85
f 61/15/86 63/17/86 69/24/86
f 69/24/86 67/22/86 61/15/86
f 63/19/87 64/18/87 70/25/87
f 70/25/88 69/26/88 63/19/88
f 64/18/89 65/20/89 71/27/89
f 71/27/90 70/25/90 64/18/90
f 65/20/91 66/21/91 72/28/91
f 72/28/91 71/27/91 65/20/91
f 66/21/92 62/16/92 68/23/92
f 68/23/93 72/28/93 66/21/93
f 57/29/20 55/30/20 53/31/20
f 53/31/20 50/32/20 49/33/20
f 57/29/20 53/31/20 49/33/20
f 59/34/20 57/29/20 49/33/20
f 67/32/15 69/31/15 70/30/15
f 70/30/15 71/29/15 72/34/15
f 67/32/15 70/30/15 72/34/15
f 68/33/15 67/32/15 72/34/15
f 73/1/94 74/2/94 75/3/94
f 75/3/95 76/4/95 73/1/95
f 74/2/72 77/5/72 78/6/72
f 78/6/72 75/3/72 74/2/72
f 77/7/96 79/8/96 80/9/96
f 80/9/97 78/10/97 77/7/97
f 79/8/98 81/11/98 82/12/98
f 82/12/99 80/9/99 79/8/99
f 81/11/100 83/13/100 84/14/100
f 84/14/100 82/12/100 81/11/100
f 83/13/101 73/1/101 76/4/101
f 76/4/102 84/14/102 83/13/102
f 76/4/103 75/3/103 85/15/103
f 85/15/103 86/16/103 76/4/103
f 75/3/55 78/6/55 87/17/55
f 87/17/55 85/15/55 75/3/55
f 78/10/104 80/9/104 88/18/104
f 88/18/104 87/19/104 78/10/104
f 80/9/82 82/12/82 89/20/82
f 89/20/82 88/18/82 80/9/82
f 82/12/58 84/14/58 90/21/58
f 90/21/58 89/20/58 82/12/58
f 84/14/105 76/4/105 86/16/105
f 86/16/105 90/21/105 84/14/105
f 86/16/106 85/15/106 91/22/106
f 91/22/107 92/23/107 86/16/107
f 85/15/86 87/17/86 93/24/86
f 93/24/86 91/22/86 85/15/86
f 87/19/108 88/18/108 94/25/108
f 94/25/109 93/26/109 87/19/109
f 88/18/110 89/20/110 95/27/110
f 95/27/111 94/25/111 88/18/111
f 89/20/112 90/21/112 96/28/112
f 96/28/112 95/27/112 89/20/112
f 90/21/113 86/16/113 92/23/113
f 92/23/114 96/28/114 90/21/114
f 81/29/20 79/30/20 77/31/20
f 77/31/20 74/32/20 73/33/20
f 81/29/20 77/31/20 73/33/20
f 83/34/20 81/29/20 73/33/20
f 91/32/15 93/31/15 94/30/15
f 94/30/15 95/29/15 96/34/15
f 91/32/15 94/30/15 96/34/15
f 92/33/15 91/32/15 96/34/15
f 97/1/115 98/2/115 99/3/115
f 99/3/116 100/4/116 97/1/116
f 98/2/72 101/5/72 102/6/72
f 102/6/72 99/3/72 98/2/72
f 101/7/73 103/8/73 104/9/73
f 104/9/74 102/10/74 101/7/74
f 103/8/75 105/11/75 106/12/75
f 106/12/76 104/9/76 103/8/76
f 105/11/77 107/13/77 108/14/77
f 108/14/77 106/12/77 105/11/77
f 107/13/117 97/1/117 100/4/117
f 100/4/118 108/14/118 107/13/118
f 100/4/119 99/3/119 109/15/119
f 109/15/119 110/16/119 100/4/119
f 99/3/55 102/6/55 111/17/55
f 111/17/55 109/15/55 99/3/55
f 102/10/81 104/9/81 112/18/81
f 112/18/81 111/19/81 102/10/81
f 104/9/82 106/12/82 113/20/82
f 113/20/82 112/18/82 104/9/82
f 106/12/58 108/14/58 114/21/58
f 114/21/58 113/20/58 106/12/58
f 108/14/120 100/4/120 110/16/120
f 110/16/120 114/21/120 108/14/120
f 110/16/121 109/15/121 115/22/121
f 115/22/122 116/23/122 110/16/122
f 109/15/86 111/17/86 117/24/86
f 117/24/86 115/22/86 109/15/86
f 111/19/87 112/18/87 118/25/87
f 118/25/87 117/26/87 111/19/87
f 112/18/89 113/20/89 119/27/89
f 119/27/123 118/25/123 112/18/123
f 113/20/91 114/21/91 120/28/91
f 120/28/91 119/27/91 113/20/91
f 114/21/124 110/16/124 116/23/124
f 116/23/93 120/28/93 114/21/93
f 105/29/20 103/30/20 101/31/20
f 101/31/20 98/32/20 97/33/20
f 105/29/20 101/31/20 97/33/20
f 107/34/20 105/29/20 97/33/20
f 115/32/15 117/31/15 118/30/15
f 118/30/15 119/29/15 120/34/15
f 115/32/15 118/30/15 120/34/15
f 116/33/15 115/32/15 120/34/15
