# Blender3D v248 OBJ File: map_Rome_allege.blend
# www.blender3d.org
mtllib rome/arbre10.mtl
v -4.624993 -0.044817 -3.367449
v -4.699069 -0.044817 -3.352351
v -4.625424 0.175781 -3.367361
v -4.698638 0.187278 -3.352438
v -4.620922 0.489224 -3.368279
v -4.548299 0.474326 -3.383081
v -4.453303 0.789795 -3.402444
v -4.527321 0.792769 -3.387357
v -4.489458 1.112976 -3.298607
v -4.521754 1.430777 -3.199006
v -4.812449 0.912761 -3.329241
v -4.991903 1.329052 -3.292664
v -4.874897 1.744745 -3.316512
v -4.239672 0.888603 -3.445987
v -4.149734 1.486362 -3.464319
v -4.435272 1.855210 -3.406119
v -4.451053 1.855210 -3.483540
v -4.165514 1.486362 -3.541739
v -4.255452 0.888603 -3.523408
v -4.890678 1.744745 -3.393933
v -5.007683 1.329052 -3.370084
v -4.828229 0.912761 -3.406661
v -4.543101 0.792769 -3.464778
v -4.469083 0.789795 -3.479864
v -4.564079 0.474326 -3.460502
v -4.636702 0.489224 -3.445699
v -4.714418 0.187278 -3.429859
v -4.641204 0.175781 -3.444782
v -4.714849 -0.044817 -3.429771
v -4.640773 -0.044817 -3.444870
v -4.490915 0.942478 -3.354571
v -4.950424 1.116929 -3.293557
v -4.131240 1.174061 -3.460528
v -4.149980 1.174061 -3.552467
v -4.969163 1.116929 -3.385496
v -4.499575 1.241686 -3.243733
v -4.987625 1.503561 -3.286698
v -4.207476 1.646078 -3.445712
v -4.225933 1.646078 -3.536263
v -5.006082 1.503561 -3.377248
v -4.506731 1.336231 -3.202068
v -4.948230 1.651860 -3.298146
v -4.301012 1.781815 -3.430066
v -4.318130 1.781815 -3.514051
v -4.965348 1.651860 -3.382132
v -4.677217 -0.044817 -3.356805
v -4.677040 0.183886 -3.356841
v -4.599498 0.484830 -3.372646
v -4.505486 0.791892 -3.391808
v -4.772357 1.856992 -3.337413
v -4.788138 1.856992 -3.414833
v -4.692997 -0.044817 -3.434225
v -4.692820 0.183886 -3.434261
v -4.615278 0.484830 -3.450066
v -4.521266 0.791892 -3.469228
v -4.641443 -0.044817 -3.364096
v -4.641683 0.178334 -3.364048
v -4.564426 0.477635 -3.379794
v -4.469740 0.790456 -3.399094
v -4.560051 1.910338 -3.380686
v -4.575832 1.910338 -3.458106
v -4.657224 -0.044817 -3.441517
v -4.657463 0.178334 -3.441468
v -4.580207 0.477635 -3.457215
v -4.485521 0.790456 -3.476514
v -4.660045 -0.044817 -3.360305
v -4.660068 0.181221 -3.360300
v -4.582664 0.481376 -3.376077
v -4.488328 0.791202 -3.395305
v -4.670451 1.917232 -3.358184
v -4.686231 1.917232 -3.435604
v -4.675826 -0.044817 -3.437725
v -4.675848 0.181221 -3.437720
v -4.598444 0.481376 -3.453497
v -4.504108 0.791202 -3.472725
vt 0.214286 0.501170
vt 0.127669 0.458527
vt 0.375712 0.334662
vt 0.408633 0.107791
vt 0.374542 0.044875
vt 0.395395 0.041936
vt 0.507875 0.489902
vt 0.394165 0.519555
vt 0.429920 0.037517
vt 0.445891 0.035651
vt 0.299460 0.522216
vt 0.411883 0.039765
vt 0.763475 0.273935
vt 0.784779 0.264962
vt 0.780996 0.434031
vt 0.759702 0.447338
vt 0.979201 0.286516
vt 1.000000 0.275186
vt 1.000000 0.446225
vt 0.979188 0.459779
vt 0.784724 0.108927
vt 0.804551 0.112343
vt 0.968018 0.116800
vt 0.988547 0.101452
vt 0.878351 0.000000
vt 0.900167 0.051192
vt 0.857089 0.047778
vt 0.880271 0.072331
vt 0.871556 0.074174
vt 0.889691 0.074006
vt 0.398599 0.553183
vt 0.295518 0.554097
vt 0.203510 0.530590
vt 0.880655 0.278730
vt 0.900936 0.288814
vt 0.880042 0.447111
vt 0.900813 0.460391
vt 0.861177 0.268602
vt 0.859559 0.433868
vt 0.879017 0.135134
vt 0.894111 0.138268
vt 0.866432 0.131427
vt 0.958683 0.297634
vt 0.958105 0.473555
vt 0.951748 0.127141
vt 0.902491 0.069380
vt 0.896720 0.075369
vt 0.519721 0.522543
vt 0.921297 0.298760
vt 0.921812 0.473847
vt 0.909116 0.140379
vt 0.805448 0.256486
vt 0.801936 0.420999
vt 0.824554 0.116710
vt 0.854434 0.068242
vt 0.862267 0.078105
vt 0.111181 0.486304
vt 0.842400 0.258543
vt 0.839365 0.420796
vt 0.850742 0.125635
vt 0.073080 0.420172
vt 0.047063 0.442392
vt 0.042599 0.367939
vt 0.007393 0.379525
vt 0.621025 0.434149
vt 0.689050 0.367123
vt 0.720659 0.390952
vt 0.641599 0.464287
vt 0.384024 0.292592
vt 0.392908 0.243420
vt 0.032032 0.307649
vt 0.000000 0.305304
vt 0.726201 0.298094
vt 0.759702 0.306661
vt 0.406393 0.185331
vt 0.053452 0.231078
vt 0.021750 0.212342
vt 0.143418 0.139131
vt 0.126492 0.112654
vt 0.718235 0.180694
vt 0.635824 0.077515
vt 0.652592 0.049791
vt 0.759701 0.165045
vt 0.361681 0.013881
vt 0.454337 0.000000
vn -0.429273 0.720420 0.544664
vn -0.554582 0.488662 0.673513
vn 0.164678 0.242164 0.956145
vn 0.200079 -0.227454 0.953001
vn -0.208899 -0.425153 0.880673
vn 0.194739 -0.101840 0.975524
vn 0.570605 0.704794 0.421491
vn 0.333964 0.858486 0.389141
vn 0.689291 -0.460189 0.559496
vn -0.038453 0.876614 0.479568
vn -0.199713 0.000000 -0.979827
vn -0.199683 0.000000 -0.979827
vn -0.141209 -0.707083 -0.692831
vn 0.141209 -0.707083 0.692831
vn 0.171941 0.984466 -0.035035
vn -0.319529 0.945311 0.065127
vn -0.647755 0.750298 0.132023
vn 0.199713 0.000000 0.979827
vn 0.523667 -0.198584 -0.828425
vn 0.525620 -0.719321 -0.454146
vn 0.542467 -0.089785 -0.835231
vn 0.450697 -0.576556 -0.681478
vn 0.720420 -0.665914 0.193640
vn 0.414655 0.906034 -0.084506
vn 0.808679 -0.189428 0.556871
vn 0.610614 -0.056642 0.789880
vn -0.808374 0.190527 -0.556963
vn -0.864376 -0.106021 -0.491531
vn -0.921720 0.071841 -0.381054
vn -0.459944 -0.666311 -0.586901
vn -0.520280 -0.332194 0.786706
vn -0.746117 0.648183 0.152074
vn -0.522813 0.201392 0.828272
vn -0.690085 0.142155 0.709586
vn -0.650685 0.459426 0.604541
vn -0.900174 0.394940 0.183477
vn -0.703299 0.046510 0.709342
vn -0.974853 0.100742 0.198706
vn 0.772973 0.497269 0.393902
vn 0.875515 0.266640 0.402875
vn 0.846950 0.502823 -0.172613
vn 0.591693 0.797052 -0.120579
vn 0.196783 0.019776 0.980224
vn 0.281075 -0.201514 0.938261
vn -0.739219 -0.138401 0.659047
vn -0.976165 -0.086337 0.198950
vn 0.871761 0.155675 0.464461
vn 0.958678 0.206732 -0.195379
vn 0.281442 -0.173620 0.943724
vn -0.427595 -0.306223 0.850490
vn -0.902707 -0.388897 0.183966
vn -0.469161 -0.631794 0.616993
vn -0.536210 -0.836970 0.109287
vn 0.917447 -0.171880 0.358745
vn 0.627613 -0.663167 0.407727
vn 0.797998 -0.580248 -0.162633
vn 0.968108 -0.154210 -0.197302
usemtl arbre_test_arbre.001
s 1
f 50/1/1 13/2/2 10/3/3
f 31/4/4 8/5/5 49/6/6
f 16/7/7 60/8/8 10/3/3
f 31/4/4 59/9/6 7/10/9
f 60/8/8 70/11/10 10/3/3
f 70/11/10 50/1/1 10/3/3
f 31/4/4 69/12/6 59/9/6
f 31/4/4 49/6/6 69/12/6
f 74/13/11 54/14/11 55/15/11
f 74/13/11 55/15/11 75/16/11
f 64/17/11 74/18/11 75/19/11
f 64/17/11 75/19/11 65/20/12
f 73/21/11 53/22/11 54/14/11
f 73/21/11 54/14/11 74/13/11
f 63/23/11 73/24/11 74/18/11
f 63/23/11 74/18/11 64/17/11
f 73/24/11 63/23/11 72/25/13
f 63/23/11 62/26/13 72/25/13
f 53/22/11 73/21/11 52/27/13
f 73/21/11 72/25/13 52/27/13
f 66/28/14 46/29/14 52/27/13
f 66/28/14 52/27/13 72/25/13
f 56/30/14 66/28/14 72/25/13
f 56/30/14 72/25/13 62/26/13
f 70/11/10 60/8/8 61/31/15
f 70/11/10 61/31/15 71/32/16
f 50/1/1 70/11/10 71/32/16
f 50/1/1 71/32/16 51/33/17
f 68/34/18 58/35/18 69/36/6
f 58/35/18 59/37/6 69/36/6
f 48/38/18 68/34/18 49/39/6
f 68/34/18 69/36/6 49/39/6
f 67/40/18 57/41/18 68/34/18
f 57/41/18 58/35/18 68/34/18
f 47/42/18 67/40/18 48/38/18
f 67/40/18 68/34/18 48/38/18
f 67/40/18 47/42/18 46/29/14
f 67/40/18 46/29/14 66/28/14
f 57/41/18 67/40/18 66/28/14
f 57/41/18 66/28/14 56/30/14
f 25/43/19 64/17/11 65/20/12
f 25/43/19 65/20/12 24/44/20
f 28/45/21 63/23/11 64/17/11
f 28/45/21 64/17/11 25/43/19
f 63/23/11 28/45/21 62/26/13
f 28/45/21 30/46/22 62/26/13
f 1/47/23 56/30/14 62/26/13
f 1/47/23 62/26/13 30/46/22
f 60/8/8 16/7/7 17/48/24
f 60/8/8 17/48/24 61/31/15
f 58/35/18 6/49/25 59/37/6
f 6/49/25 7/50/9 59/37/6
f 57/41/18 3/51/26 58/35/18
f 3/51/26 6/49/25 58/35/18
f 56/30/14 1/47/23 3/51/26
f 56/30/14 3/51/26 57/41/18
f 54/14/11 26/52/27 23/53/28
f 54/14/11 23/53/28 55/15/11
f 53/22/11 27/54/29 26/52/27
f 53/22/11 26/52/27 54/14/11
f 27/54/29 53/22/11 29/55/30
f 53/22/11 52/27/13 29/55/30
f 46/29/14 2/56/31 29/55/30
f 46/29/14 29/55/30 52/27/13
f 13/2/2 50/1/1 51/33/17
f 13/2/2 51/33/17 20/57/32
f 5/58/33 48/38/18 8/59/5
f 48/38/18 49/39/6 8/59/5
f 4/60/34 47/42/18 5/58/33
f 47/42/18 48/38/18 5/58/33
f 47/42/18 4/60/34 2/56/31
f 47/42/18 2/56/31 46/29/14
f 42/61/35 13/2/2 20/57/32
f 42/61/35 20/57/32 45/62/36
f 37/63/37 42/61/35 45/62/36
f 37/63/37 45/62/36 40/64/38
f 43/65/39 38/66/40 39/67/41
f 43/65/39 39/67/41 44/68/42
f 16/7/7 43/65/39 44/68/42
f 16/7/7 44/68/42 17/48/24
f 41/69/43 36/70/44 43/65/39
f 36/70/44 38/66/40 43/65/39
f 10/3/3 41/69/43 16/7/7
f 41/69/43 43/65/39 16/7/7
f 41/69/43 10/3/3 13/2/2
f 41/69/43 13/2/2 42/61/35
f 36/70/44 41/69/43 37/63/37
f 41/69/43 42/61/35 37/63/37
f 12/71/45 37/63/37 40/64/38
f 12/71/45 40/64/38 21/72/46
f 38/66/40 15/73/47 18/74/48
f 38/66/40 18/74/48 39/67/41
f 36/70/44 9/75/49 38/66/40
f 9/75/49 15/73/47 38/66/40
f 9/75/49 36/70/44 12/71/45
f 36/70/44 37/63/37 12/71/45
f 32/76/50 12/71/45 35/77/51
f 12/71/45 21/72/46 35/77/51
f 11/78/52 32/76/50 35/77/51
f 11/78/52 35/77/51 22/79/53
f 33/80/54 14/81/55 19/82/56
f 33/80/54 19/82/56 34/83/57
f 15/73/47 33/80/54 18/74/48
f 33/80/54 34/83/57 18/74/48
f 31/4/4 7/10/9 14/81/55
f 31/4/4 14/81/55 33/80/54
f 9/75/49 31/4/4 33/80/54
f 9/75/49 33/80/54 15/73/47
f 31/4/4 9/75/49 32/76/50
f 9/75/49 12/71/45 32/76/50
f 8/5/5 31/4/4 11/78/52
f 31/4/4 32/76/50 11/78/52
f 3/51/26 1/47/23 28/45/21
f 1/47/23 30/46/22 28/45/21
f 2/56/31 4/60/34 27/54/29
f 2/56/31 27/54/29 29/55/30
f 4/60/34 5/58/33 26/52/27
f 4/60/34 26/52/27 27/54/29
f 6/49/25 3/51/26 28/45/21
f 6/49/25 28/45/21 25/43/19
f 7/50/9 6/49/25 25/43/19
f 7/50/9 25/43/19 24/44/20
f 5/58/33 8/59/5 23/53/28
f 5/58/33 23/53/28 26/52/27
f 8/5/5 11/78/52 22/79/53
f 8/5/5 22/79/53 23/84/28
f 14/81/55 7/10/9 24/85/20
f 14/81/55 24/85/20 19/82/56
