# Blender3D v248 OBJ File: map_Rome_allege.blend
# www.blender3d.org
mtllib rome/arbre6.mtl
v -3.253552 -0.082576 -3.320968
v -3.217866 0.043940 -3.319477
v -3.195037 0.172930 -3.318990
v -3.360349 0.002383 -3.335238
v -3.376899 0.173892 -3.380093
v -3.281467 0.306824 -3.423586
v -3.146828 -0.080345 -3.330173
v -3.039201 0.120943 -3.393059
v -3.101692 0.289281 -3.433355
v -3.104093 0.281261 -3.463134
v -3.041601 0.112924 -3.422837
v -3.149229 -0.088364 -3.359951
v -3.283868 0.298804 -3.453364
v -3.379299 0.165872 -3.409871
v -3.362750 -0.005637 -3.365016
v -3.236933 -0.023624 -3.322163
v -3.387684 0.093908 -3.354670
v -3.071014 0.008249 -3.357131
v -3.073865 -0.001274 -3.392494
v -3.390535 0.084384 -3.390032
v -3.208170 0.097687 -3.313689
v -3.354087 0.236353 -3.396028
v -3.041654 0.186161 -3.407700
v -3.044462 0.176781 -3.442528
v -3.356895 0.226973 -3.430857
v -3.201005 0.137307 -3.308916
v -3.320778 0.283654 -3.412815
v -3.060137 0.246189 -3.423738
v -3.062741 0.237490 -3.456042
v -3.323382 0.274954 -3.445118
v -3.228883 0.333537 -3.435020
v -3.231284 0.325518 -3.464798
v -3.142065 0.325065 -3.439738
v -3.144466 0.317046 -3.469516
v -3.182944 0.341808 -3.440951
v -3.185345 0.333788 -3.470729
vt 0.180639 0.429406
vt 0.104825 0.386877
vt 0.305615 0.301472
vt 0.436590 0.469396
vt 0.335017 0.466800
vt 0.358792 0.322442
vt 0.253488 0.455233
vt 0.341766 0.316913
vt 0.325275 0.310510
vt 0.332425 0.495717
vt 0.246576 0.481928
vt 0.169219 0.454621
vt 0.438958 0.499766
vt 0.088417 0.410928
vt 0.058007 0.348701
vt 0.032888 0.367172
vt 0.034193 0.299450
vt 0.001031 0.307249
vt 0.549572 0.447334
vt 0.627928 0.401207
vt 0.651824 0.430690
vt 0.560924 0.479487
vt 0.387868 0.280004
vt 0.402445 0.237225
vt 0.374386 0.327453
vt 0.326052 0.256846
vt 0.345162 0.212731
vt 0.029640 0.242908
vt 0.000000 0.237909
vt 0.678299 0.344765
vt 0.707183 0.360316
vt 0.424570 0.183188
vt 0.370194 0.158955
vt 0.056670 0.173231
vt 0.028638 0.152325
vt 0.151976 0.096253
vt 0.138816 0.068960
vt 0.698991 0.234870
vt 0.642199 0.118902
vt 0.667936 0.094440
vt 0.738249 0.231706
vt 0.443739 0.105702
vt 0.462134 0.034050
vt 0.380362 0.092507
vt 0.387602 0.031591
vn -0.239387 0.943114 0.230598
vn -0.444960 0.806574 0.389111
vn 0.123447 0.481338 0.867763
vn 0.675680 0.589404 0.442701
vn 0.540941 0.816431 0.201880
vn 0.185400 0.960692 0.206458
vn 0.475784 0.838893 -0.264260
vn -0.011048 0.965758 -0.259194
vn -0.389294 0.896786 -0.210120
vn 0.695639 0.677572 -0.238563
vn -0.516404 0.836421 -0.183599
vn -0.608783 0.756035 0.240303
vn -0.696768 0.704703 -0.133610
vn -0.662679 0.405286 0.629719
vn -0.891476 0.450331 -0.049379
vn 0.850429 0.436110 0.294198
vn 0.863582 0.138493 0.484787
vn 0.975921 0.177526 -0.126469
vn 0.864101 0.464095 -0.194647
vn 0.081027 0.278146 0.957091
vn 0.095553 0.041017 0.994568
vn -0.814631 0.280435 0.507614
vn -0.969665 0.244087 0.012421
vn 0.892087 -0.023530 0.451216
vn 0.995086 -0.079531 -0.058779
vn 0.104068 0.068026 0.992218
vn -0.595355 0.105991 0.796411
vn -0.993896 -0.055452 0.095065
vn -0.672109 -0.088626 0.735099
vn -0.955992 -0.254585 0.145634
vn 0.691916 -0.274911 0.667562
vn 0.436445 -0.205481 0.875942
vn 0.771233 -0.627491 0.106784
vn 0.916379 -0.398877 0.033540
vn 0.021973 0.049379 0.998535
vn -0.004700 0.021577 0.999725
usemtl arbre_test_arbre.001
s 1
f 31/1/1 6/2/2 3/3/3
f 9/4/4 33/5/5 3/6/3
f 33/5/5 35/7/6 3/8/3
f 35/7/6 31/1/1 3/9/3
f 35/7/6 33/5/5 34/10/7
f 35/7/6 34/10/7 36/11/8
f 31/1/1 35/7/6 36/11/8
f 31/1/1 36/11/8 32/12/9
f 33/5/5 9/4/4 10/13/10
f 33/5/5 10/13/10 34/10/7
f 6/2/2 31/1/1 32/12/9
f 6/2/2 32/12/9 13/14/11
f 27/15/12 6/2/2 13/14/11
f 27/15/12 13/14/11 30/16/13
f 22/17/14 27/15/12 25/18/15
f 27/15/12 30/16/13 25/18/15
f 28/19/16 23/20/17 24/21/18
f 28/19/16 24/21/18 29/22/19
f 9/4/4 28/19/16 10/13/10
f 28/19/16 29/22/19 10/13/10
f 26/23/20 21/24/21 28/19/16
f 21/24/21 23/20/17 28/19/16
f 3/25/3 26/23/20 9/4/4
f 26/23/20 28/19/16 9/4/4
f 26/26/20 3/3/3 6/2/2
f 26/26/20 6/2/2 27/15/12
f 21/27/21 26/26/20 22/17/14
f 26/26/20 27/15/12 22/17/14
f 5/28/22 22/17/14 25/18/15
f 5/28/22 25/18/15 14/29/23
f 23/20/17 8/30/24 11/31/25
f 23/20/17 11/31/25 24/21/18
f 21/24/21 2/32/26 23/20/17
f 2/32/26 8/30/24 23/20/17
f 2/33/26 21/27/21 5/28/22
f 21/27/21 22/17/14 5/28/22
f 17/34/27 5/28/22 20/35/28
f 5/28/22 14/29/23 20/35/28
f 4/36/29 17/34/27 20/35/28
f 4/36/29 20/35/28 15/37/30
f 18/38/31 7/39/32 12/40/33
f 18/38/31 12/40/33 19/41/34
f 8/30/24 18/38/31 19/41/34
f 8/30/24 19/41/34 11/31/25
f 16/42/35 1/43/36 7/39/32
f 16/42/35 7/39/32 18/38/31
f 2/32/26 16/42/35 18/38/31
f 2/32/26 18/38/31 8/30/24
f 16/44/35 2/33/26 17/34/27
f 2/33/26 5/28/22 17/34/27
f 1/45/36 16/44/35 4/36/29
f 16/44/35 17/34/27 4/36/29
