# Blender3D v248 OBJ File: map_Rome_allege.blend
# www.blender3d.org
mtllib rome/base1.mtl
v 3.426959 -0.003418 -0.775493
v 3.826843 -0.003418 -0.775493
v 3.426959 -0.003418 -1.169368
v 3.826843 -0.003418 -1.169368
v 3.426959 0.011884 -0.775493
v 3.826843 0.011884 -0.775493
v 3.426959 0.011884 -1.169368
v 3.826843 0.011884 -1.169368
v 3.457538 0.011884 -0.796768
v 3.457538 0.011884 -1.148093
v 3.796263 0.011884 -0.796768
v 3.796264 0.011884 -1.148093
v 3.457538 0.029628 -1.148093
v 3.457538 0.029628 -0.796768
v 3.796264 0.029628 -1.148093
v 3.796263 0.029628 -0.796768
v 3.439895 0.029628 -0.784493
v 3.439895 0.029628 -1.160368
v 3.813906 0.029628 -0.784493
v 3.813907 0.029628 -1.160368
v 3.439895 0.043339 -1.160368
v 3.439895 0.043339 -0.784493
v 3.813906 0.043339 -0.784493
v 3.813907 0.043339 -1.160368
v 3.433115 0.043339 -1.165085
v 3.433114 0.043339 -0.779776
v 3.820687 0.043339 -1.165085
v 3.820687 0.043339 -0.779776
v 3.433114 0.096571 -0.779776
v 3.433115 0.096570 -1.165085
v 3.820687 0.096570 -1.165085
v 3.820687 0.096570 -0.779776
v 3.443971 0.096571 -0.787330
v 3.443972 0.096570 -1.157532
v 3.809830 0.096570 -1.157532
v 3.809830 0.096570 -0.787330
v 3.443971 0.105442 -0.787330
v 3.443972 0.105442 -1.157532
v 3.809830 0.105442 -1.157532
v 3.809830 0.105442 -0.787330
v 3.438432 0.105442 -0.783476
v 3.438432 0.105442 -1.161386
v 3.815369 0.105442 -0.783476
v 3.815370 0.105442 -1.161386
v 3.433516 0.135284 -1.164806
v 3.433516 0.135284 -0.780056
v 3.820286 0.135284 -1.164806
v 3.820285 0.135284 -0.780056
v 3.436981 0.169159 -0.782466
v 3.436981 0.169159 -1.162395
v 3.816820 0.169159 -0.782466
v 3.816821 0.169159 -1.162395
v 3.451865 0.189323 -1.152040
v 3.451865 0.189323 -0.792822
v 3.801936 0.189322 -1.152040
v 3.801936 0.189322 -0.792822
vt 0.369019 0.486734
vt 0.555702 0.494906
vt 0.106703 0.686434
vt 0.814442 0.693952
vt 0.356702 0.458378
vt 0.570760 0.466586
vt 0.871400 0.654010
vt 0.053504 0.644015
vt 0.347597 0.428284
vt 0.581995 0.434508
vt 0.905639 0.598149
vt 0.022199 0.583464
vt 0.341541 0.395632
vt 0.590984 0.398637
vt 0.923409 0.535344
vt 0.009341 0.517669
vt 0.356293 0.355579
vt 0.585641 0.368834
vt 0.913496 0.484536
vt 0.042154 0.440203
vt 0.352146 0.326546
vt 0.594672 0.339066
vt 0.928145 0.446437
vt 0.036863 0.401078
vt 0.337625 0.295633
vt 0.621342 0.296521
vt 0.988605 0.394669
vt 0.006964 0.366895
vt 0.333080 0.252451
vt 0.632021 0.247818
vt 1.000000 0.318437
vt 0.000000 0.296082
vt 0.349173 0.204940
vt 0.621369 0.214428
vt 0.958796 0.246721
vt 0.023714 0.249682
vt 0.345470 0.171302
vt 0.628564 0.169176
vt 0.959907 0.209643
vt 0.023068 0.212967
vt 0.362624 0.121287
vt 0.617521 0.133213
vt 0.944404 0.177216
vt 0.040535 0.176745
vt 0.357787 0.085636
vt 0.621575 0.097128
vt 0.947545 0.149223
vt 0.037607 0.148319
vt 0.338282 0.048501
vt 0.645305 0.049211
vt 0.994149 0.102692
vt 0.012713 0.123092
vt 0.330709 0.006992
vt 0.645125 0.000000
vt 1.000000 0.044044
vt 0.001092 0.080524
vn -0.338633 0.863186 0.374401
vn 0.200385 0.873745 0.443159
vn -0.450606 0.892697 0.000000
vn 0.592456 0.805567 0.000000
vn -0.701651 0.463240 0.541337
vn 0.602680 0.437056 0.667623
vn 0.961577 0.274422 0.000000
vn -0.932707 0.360607 0.000000
vn -0.703940 -0.046297 0.708731
vn 0.797540 -0.056001 0.600604
vn 0.999512 -0.030641 0.000000
vn -0.999878 0.013733 0.000000
vn -0.243507 -0.836756 0.490402
vn 0.276894 -0.919523 0.278817
vn 0.647084 -0.762413 0.000000
vn -0.830195 -0.557451 0.000000
vn -0.534501 -0.801782 0.267251
vn 0.267251 -0.801782 0.534501
vn 0.894406 -0.447188 0.000000
vn -0.447188 -0.894406 0.000000
vn -0.267251 0.801782 0.534501
vn 0.534501 0.801782 0.267251
vn 0.447188 0.894406 0.000000
vn -0.894406 0.447188 0.000000
vn -0.534501 0.801782 0.267251
vn 0.267251 0.801782 0.534501
vn 0.894406 0.447188 0.000000
vn -0.447188 0.894406 0.000000
vn -0.267251 -0.801782 0.534501
vn 0.534501 -0.801782 0.267251
vn 0.447188 -0.894406 0.000000
vn -0.894406 -0.447188 0.000000
vn -0.333323 -0.666646 0.666646
vn -0.707083 -0.707083 0.000000
vn -0.436415 -0.872860 0.218207
vn 0.707083 0.707083 0.000000
vn -0.707083 0.707083 0.000000
vn -0.894406 0.000000 0.447188
vn 0.447188 0.000000 0.894406
vn 1.000000 0.000000 0.000000
vn -1.000000 0.000000 0.000000
usemtl base_pilier_v1_base_pilierv1.tga
s 1
f 54/1/1 56/2/2 53/3/3
f 56/2/2 55/4/4 53/3/3
f 49/5/5 51/6/6 56/2/2
f 49/5/5 56/2/2 54/1/1
f 51/6/6 52/7/7 55/4/4
f 51/6/6 55/4/4 56/2/2
f 50/8/8 49/5/5 53/3/3
f 49/5/5 54/1/1 53/3/3
f 46/9/9 48/10/10 51/6/6
f 46/9/9 51/6/6 49/5/5
f 48/10/10 47/11/11 52/7/7
f 48/10/10 52/7/7 51/6/6
f 45/12/12 46/9/9 49/5/5
f 45/12/12 49/5/5 50/8/8
f 41/13/13 43/14/14 48/10/10
f 41/13/13 48/10/10 46/9/9
f 43/14/14 44/15/15 48/10/10
f 44/15/15 47/11/11 48/10/10
f 42/16/16 41/13/13 46/9/9
f 42/16/16 46/9/9 45/12/12
f 37/17/17 40/18/18 43/14/14
f 37/17/17 43/14/14 41/13/13
f 40/18/18 39/19/19 44/15/15
f 40/18/18 44/15/15 43/14/14
f 38/20/20 37/17/17 41/13/13
f 38/20/20 41/13/13 42/16/16
f 33/21/21 36/22/22 40/18/18
f 33/21/21 40/18/18 37/17/17
f 36/22/22 35/23/23 39/19/19
f 36/22/22 39/19/19 40/18/18
f 34/24/24 33/21/21 37/17/17
f 34/24/24 37/17/17 38/20/20
f 29/25/25 32/26/26 36/22/22
f 29/25/25 36/22/22 33/21/21
f 32/26/26 31/27/27 35/23/23
f 32/26/26 35/23/23 36/22/22
f 30/28/28 29/25/25 33/21/21
f 30/28/28 33/21/21 34/24/24
f 26/29/29 28/30/30 32/26/26
f 26/29/29 32/26/26 29/25/25
f 28/30/30 27/31/31 31/27/27
f 28/30/30 31/27/27 32/26/26
f 25/32/32 26/29/29 29/25/25
f 25/32/32 29/25/25 30/28/28
f 22/33/17 23/34/18 28/30/30
f 22/33/17 28/30/30 26/29/29
f 23/34/18 24/35/19 27/31/31
f 23/34/18 27/31/31 28/30/30
f 21/36/20 22/33/17 26/29/29
f 21/36/20 26/29/29 25/32/32
f 17/37/33 19/38/30 23/34/18
f 17/37/33 23/34/18 22/33/17
f 19/38/30 20/39/31 24/35/19
f 19/38/30 24/35/19 23/34/18
f 18/40/34 17/37/33 22/33/17
f 18/40/34 22/33/17 21/36/20
f 14/41/35 16/42/18 19/38/30
f 14/41/35 19/38/30 17/37/33
f 16/42/18 15/43/19 20/39/31
f 16/42/18 20/39/31 19/38/30
f 13/44/34 14/41/35 18/40/34
f 14/41/35 17/37/33 18/40/34
f 9/45/21 11/46/22 16/42/18
f 9/45/21 16/42/18 14/41/35
f 11/46/22 12/47/23 15/43/19
f 11/46/22 15/43/19 16/42/18
f 10/48/24 9/45/21 14/41/35
f 10/48/24 14/41/35 13/44/34
f 5/49/21 6/50/22 11/46/22
f 5/49/21 11/46/22 9/45/21
f 6/50/22 8/51/36 12/47/23
f 6/50/22 12/47/23 11/46/22
f 7/52/37 5/49/21 9/45/21
f 7/52/37 9/45/21 10/48/24
f 5/49/21 1/53/38 2/54/39
f 5/49/21 2/54/39 6/50/22
f 6/50/22 2/54/39 4/55/40
f 6/50/22 4/55/40 8/51/36
f 1/53/38 5/49/21 7/52/37
f 1/53/38 7/52/37 3/56/41
