# Blender3D v248 OBJ File: map_Rome_allege.blend
# www.blender3d.org
mtllib rome/base2.mtl
v 2.638369 -0.003417 1.638004
v 3.038254 -0.003418 1.638004
v 2.638370 -0.003417 1.244130
v 3.038254 -0.003418 1.244130
v 2.638370 0.011884 1.638004
v 3.038254 0.011884 1.638004
v 2.638370 0.011884 1.244130
v 3.038254 0.011884 1.244130
v 2.668949 0.011884 1.616730
v 2.668949 0.011884 1.265404
v 3.007674 0.011884 1.616730
v 3.007674 0.011884 1.265404
v 2.668949 0.029628 1.265404
v 2.668949 0.029628 1.616730
v 3.007674 0.029628 1.265404
v 3.007674 0.029628 1.616730
v 2.651306 0.029628 1.629004
v 2.651306 0.029628 1.253130
v 3.025317 0.029628 1.629004
v 3.025318 0.029628 1.253130
v 2.651306 0.043339 1.253130
v 2.651306 0.043339 1.629004
v 3.025317 0.043339 1.629004
v 3.025318 0.043339 1.253130
v 2.644525 0.043339 1.248412
v 2.644525 0.043339 1.633722
v 3.032098 0.043339 1.248412
v 3.032098 0.043339 1.633722
v 2.644525 0.096571 1.633722
v 2.644525 0.096571 1.248412
v 3.032098 0.096571 1.248412
v 3.032098 0.096571 1.633722
v 2.655382 0.096571 1.626168
v 2.655382 0.096571 1.255966
v 3.021241 0.096571 1.255966
v 3.021241 0.096571 1.626168
v 2.655382 0.105443 1.626168
v 2.655382 0.105443 1.255966
v 3.021241 0.105442 1.255966
v 3.021241 0.105442 1.626168
v 2.649843 0.105443 1.630022
v 2.649843 0.105443 1.252112
v 3.026780 0.105442 1.630022
v 3.026780 0.105442 1.252112
v 2.644927 0.135285 1.248691
v 2.644927 0.135285 1.633442
v 3.031697 0.135284 1.248691
v 3.031697 0.135284 1.633442
v 2.648392 0.169159 1.631031
v 2.648392 0.169159 1.251102
v 3.028231 0.169159 1.631031
v 3.028232 0.169159 1.251102
v 2.663276 0.189323 1.261458
v 2.663276 0.189323 1.620676
v 3.013347 0.189323 1.261458
v 3.013347 0.189323 1.620676
vt 0.369014 0.486724
vt 0.555697 0.494902
vt 0.814433 0.693957
vt 0.106687 0.686415
vt 0.356697 0.458368
vt 0.570756 0.466582
vt 0.871393 0.654015
vt 0.053488 0.643993
vt 0.347592 0.428273
vt 0.581992 0.434505
vt 0.905633 0.598155
vt 0.022186 0.583440
vt 0.341538 0.395621
vt 0.590981 0.398633
vt 0.923405 0.535350
vt 0.009330 0.517644
vt 0.356292 0.355569
vt 0.585639 0.368830
vt 0.913493 0.484541
vt 0.042147 0.440179
vt 0.352147 0.326536
vt 0.594670 0.339062
vt 0.928143 0.446441
vt 0.036858 0.401054
vt 0.337627 0.295624
vt 0.621341 0.296517
vt 0.988603 0.394675
vt 0.006961 0.366869
vt 0.333083 0.252441
vt 0.632022 0.247816
vt 1.000000 0.318443
vt 0.000000 0.296056
vt 0.349178 0.204931
vt 0.621370 0.214426
vt 0.958797 0.246725
vt 0.023716 0.249657
vt 0.345476 0.171293
vt 0.628567 0.169174
vt 0.959908 0.209648
vt 0.023072 0.212942
vt 0.362631 0.121279
vt 0.617524 0.133211
vt 0.944405 0.177220
vt 0.040541 0.176722
vt 0.357796 0.085628
vt 0.621578 0.097126
vt 0.947546 0.149227
vt 0.037614 0.148296
vt 0.338293 0.048493
vt 0.645309 0.049210
vt 0.994150 0.102696
vt 0.012721 0.123066
vt 0.330722 0.006985
vt 0.645130 0.000000
vt 1.000000 0.044049
vt 0.001103 0.080498
vn -0.338633 0.863186 0.374401
vn 0.338633 0.863186 0.374401
vn 0.450606 0.892697 0.000000
vn -0.450606 0.892697 0.000000
vn -0.771264 0.365795 0.520859
vn 0.505570 0.455367 0.732780
vn 0.961577 0.274422 0.000000
vn -0.896115 0.443800 0.000000
vn -0.703940 -0.046297 0.708731
vn 0.705863 -0.027436 0.707785
vn 0.997162 -0.075014 0.000000
vn -0.999878 0.013733 0.000000
vn -0.200568 -0.892514 0.403943
vn 0.482772 -0.841304 0.243049
vn 0.647084 -0.762413 0.000000
vn -0.830195 -0.557451 0.000000
vn -0.666646 -0.666646 0.333323
vn 0.267251 -0.801782 0.534501
vn 0.707083 -0.707083 0.000000
vn -0.447188 -0.894406 0.000000
vn -0.267251 0.801782 0.534501
vn 0.534501 0.801782 0.267251
vn 0.447188 0.894406 0.000000
vn -0.894406 0.447188 0.000000
vn -0.534501 0.801782 0.267251
vn 0.267251 0.801782 0.534501
vn 0.894406 0.447188 0.000000
vn -0.447188 0.894406 0.000000
vn -0.267251 -0.801782 0.534501
vn 0.534501 -0.801782 0.267251
vn 0.447188 -0.894406 0.000000
vn -0.894406 -0.447188 0.000000
vn -0.534501 -0.801782 0.267251
vn 0.894406 -0.447188 0.000000
vn -0.333323 -0.666646 0.666646
vn -0.707083 -0.707083 0.000000
vn -0.436415 -0.872860 0.218207
vn 0.707083 0.707083 0.000000
vn -0.707083 0.707083 0.000000
vn -0.894406 0.000000 0.447188
vn 0.447188 0.000000 0.894406
vn 1.000000 0.000000 0.000000
vn -1.000000 0.000000 0.000000
usemtl base_pilier_v2
s 1
f 54/1/1 56/2/2 55/3/3
f 54/1/1 55/3/3 53/4/4
f 49/5/5 51/6/6 54/1/1
f 51/6/6 56/2/2 54/1/1
f 51/6/6 52/7/7 55/3/3
f 51/6/6 55/3/3 56/2/2
f 50/8/8 49/5/5 54/1/1
f 50/8/8 54/1/1 53/4/4
f 46/9/9 48/10/10 51/6/6
f 46/9/9 51/6/6 49/5/5
f 48/10/10 47/11/11 52/7/7
f 48/10/10 52/7/7 51/6/6
f 45/12/12 46/9/9 49/5/5
f 45/12/12 49/5/5 50/8/8
f 41/13/13 43/14/14 48/10/10
f 41/13/13 48/10/10 46/9/9
f 43/14/14 44/15/15 47/11/11
f 43/14/14 47/11/11 48/10/10
f 42/16/16 41/13/13 46/9/9
f 42/16/16 46/9/9 45/12/12
f 37/17/17 40/18/18 41/13/13
f 40/18/18 43/14/14 41/13/13
f 40/18/18 39/19/19 43/14/14
f 39/19/19 44/15/15 43/14/14
f 38/20/20 37/17/17 41/13/13
f 38/20/20 41/13/13 42/16/16
f 33/21/21 36/22/22 40/18/18
f 33/21/21 40/18/18 37/17/17
f 36/22/22 35/23/23 39/19/19
f 36/22/22 39/19/19 40/18/18
f 34/24/24 33/21/21 37/17/17
f 34/24/24 37/17/17 38/20/20
f 29/25/25 32/26/26 36/22/22
f 29/25/25 36/22/22 33/21/21
f 32/26/26 31/27/27 35/23/23
f 32/26/26 35/23/23 36/22/22
f 30/28/28 29/25/25 33/21/21
f 30/28/28 33/21/21 34/24/24
f 26/29/29 28/30/30 32/26/26
f 26/29/29 32/26/26 29/25/25
f 28/30/30 27/31/31 31/27/27
f 28/30/30 31/27/27 32/26/26
f 25/32/32 26/29/29 29/25/25
f 25/32/32 29/25/25 30/28/28
f 22/33/33 23/34/18 28/30/30
f 22/33/33 28/30/30 26/29/29
f 23/34/18 24/35/34 27/31/31
f 23/34/18 27/31/31 28/30/30
f 21/36/20 22/33/33 26/29/29
f 21/36/20 26/29/29 25/32/32
f 17/37/35 19/38/30 23/34/18
f 17/37/35 23/34/18 22/33/33
f 19/38/30 20/39/31 24/35/34
f 19/38/30 24/35/34 23/34/18
f 18/40/36 17/37/35 22/33/33
f 18/40/36 22/33/33 21/36/20
f 14/41/37 16/42/18 19/38/30
f 14/41/37 19/38/30 17/37/35
f 16/42/18 15/43/34 20/39/31
f 16/42/18 20/39/31 19/38/30
f 13/44/36 14/41/37 18/40/36
f 14/41/37 17/37/35 18/40/36
f 9/45/21 11/46/22 16/42/18
f 9/45/21 16/42/18 14/41/37
f 11/46/22 12/47/23 15/43/34
f 11/46/22 15/43/34 16/42/18
f 10/48/24 9/45/21 14/41/37
f 10/48/24 14/41/37 13/44/36
f 5/49/21 6/50/22 11/46/22
f 5/49/21 11/46/22 9/45/21
f 6/50/22 8/51/38 12/47/23
f 6/50/22 12/47/23 11/46/22
f 7/52/39 5/49/21 9/45/21
f 7/52/39 9/45/21 10/48/24
f 5/49/21 1/53/40 2/54/41
f 5/49/21 2/54/41 6/50/22
f 6/50/22 2/54/41 4/55/42
f 6/50/22 4/55/42 8/51/38
f 1/53/40 5/49/21 7/52/39
f 1/53/40 7/52/39 3/56/43
