# Blender3D v248 OBJ File: map_Rome_allege.blend
# www.blender3d.org
mtllib rome/bloc.mtl
v 2.826667 1.517717 -1.147153
v 2.826667 1.517717 -0.801481
v 1.144251 1.517717 -0.801481
v 1.144251 1.517717 -1.147153
v 2.826668 1.848874 -1.147153
v 2.826667 1.848874 -0.801481
v 1.144251 1.848874 -0.801481
v 1.144251 1.848874 -1.147153
v 2.826667 1.574014 -0.801481
v 2.826667 1.574014 -1.147153
v 1.144251 1.574014 -0.801481
v 1.144251 1.574014 -1.147153
v 2.720436 1.608371 -0.825142
v 2.720437 1.608371 -1.123492
v 1.250482 1.608371 -0.825142
v 1.250482 1.608371 -1.123492
v 2.718570 1.717800 -0.825558
v 2.718570 1.717800 -1.123077
v 1.252348 1.717800 -0.825558
v 1.252348 1.717800 -1.123077
v 2.825826 1.784648 -0.801668
v 2.825827 1.784648 -1.146966
v 1.145091 1.784648 -0.801669
v 1.145091 1.784648 -1.146966
vt 0.263156 0.284524
vt 0.260779 0.212916
vt 0.515214 0.276964
vt 0.514864 0.209591
vt 0.264689 0.343965
vt 0.515193 0.336901
vt 0.733667 0.284865
vt 0.731963 0.338185
vt 0.736193 0.223668
vt 0.959538 0.299554
vt 0.956615 0.351356
vt 0.950287 0.246110
vt 0.019862 0.351356
vt 0.018423 0.286086
vt 0.035905 0.215773
vt 0.258636 0.097648
vt 0.522185 0.099403
vt 0.747571 0.115721
vt 0.965625 0.168151
vt 0.030219 0.123061
vt 0.258203 0.054836
vt 0.525158 0.059826
vt 0.754021 0.082009
vt 0.986755 0.142354
vt 0.005729 0.082027
vt 0.255063 0.000000
vt 0.526891 0.003726
vt 0.762572 0.028834
vt 1.000000 0.094372
vt 0.000000 0.026149
vt 0.355811 0.679579
vt 0.000000 0.679579
vt 0.355810 0.351356
vt 0.000000 0.351356
vt 0.711621 0.351357
vt 0.711621 0.679579
vt 0.355811 0.351356
vn 0.647908 -0.437757 -0.623341
vn 0.519791 -0.304209 -0.798273
vn -0.423750 -0.426221 -0.799188
vn -0.739311 -0.482620 -0.469497
vn 0.580370 0.571154 -0.580432
vn -0.580370 0.571154 -0.580432
vn -0.733543 -0.494888 0.465804
vn -0.409497 0.401776 0.819056
vn -0.425581 -0.417798 0.802667
vn 0.343638 -0.346294 0.872890
vn 0.670949 0.661245 0.335490
vn 0.500168 -0.488388 0.715018
vn 0.480483 0.565722 -0.670095
vn -0.321207 0.608905 -0.725272
vn -0.581744 0.393384 0.711875
vn 0.541734 0.637013 0.548357
vn 0.322184 0.605792 -0.727439
vn -0.697134 0.458754 -0.550890
vn -0.322184 0.605792 0.727439
vn 0.697134 0.458754 0.550890
vn 0.666646 -0.666646 -0.333323
vn -0.408246 -0.408246 -0.816492
vn -0.666646 -0.666646 0.333323
vn 0.408246 -0.408246 0.816492
usemtl bloc_bloc.tga
s 1
f 22/1/1 18/2/2 24/3/3
f 18/2/2 20/4/4 24/3/3
f 5/5/5 22/1/1 8/6/6
f 22/1/1 24/3/3 8/6/6
f 23/7/7 7/8/8 8/6/6
f 23/7/7 8/6/6 24/3/3
f 19/9/9 23/7/7 20/4/4
f 23/7/7 24/3/3 20/4/4
f 21/10/10 6/11/11 7/8/8
f 21/10/10 7/8/8 23/7/7
f 17/12/12 21/10/10 19/9/9
f 21/10/10 23/7/7 19/9/9
f 22/1/1 5/5/5 6/13/11
f 22/1/1 6/13/11 21/14/10
f 18/2/2 22/1/1 17/15/12
f 22/1/1 21/14/10 17/15/12
f 18/2/2 14/16/13 16/17/14
f 18/2/2 16/17/14 20/4/4
f 15/18/15 19/9/9 20/4/4
f 15/18/15 20/4/4 16/17/14
f 13/19/16 17/12/12 15/18/15
f 17/12/12 19/9/9 15/18/15
f 14/16/13 18/2/2 13/20/16
f 18/2/2 17/15/12 13/20/16
f 14/16/13 10/21/17 16/17/14
f 10/21/17 12/22/18 16/17/14
f 11/23/19 15/18/15 16/17/14
f 11/23/19 16/17/14 12/22/18
f 9/24/20 13/19/16 11/23/19
f 13/19/16 15/18/15 11/23/19
f 10/21/17 14/16/13 13/20/16
f 10/21/17 13/20/16 9/25/20
f 10/21/17 1/26/21 4/27/22
f 10/21/17 4/27/22 12/22/18
f 3/28/23 11/23/19 12/22/18
f 3/28/23 12/22/18 4/27/22
f 2/29/24 9/24/20 11/23/19
f 2/29/24 11/23/19 3/28/23
f 1/26/21 10/21/17 9/25/20
f 1/26/21 9/25/20 2/30/24
f 5/31/5 8/32/6 6/33/11
f 8/32/6 7/34/8 6/33/11
f 1/35/21 2/36/24 3/31/23
f 1/35/21 3/31/23 4/37/22
