# Blender3D v248 OBJ File: map_Rome_allege2.blend
# www.blender3d.org
mtllib rome/plateformegdbas.mtl
v 1.577053 2.104373 -0.115795
v 1.577051 2.104373 0.542423
v -0.813749 2.104373 0.542423
v -0.813748 2.104373 -0.115795
v -0.813748 2.066196 -0.115795
v -0.813749 2.066196 0.542423
v 1.577051 2.066196 0.542423
v 1.577053 2.066196 -0.115795
v 1.474642 2.066196 -0.079764
v 1.474641 2.066196 0.506393
v -0.711339 2.066196 0.506392
v -0.711338 2.066196 -0.079765
v -0.711338 2.024838 -0.079765
v -0.711339 2.024838 0.506392
v 1.474641 2.024838 0.506393
v 1.474642 2.024838 -0.079764
v 1.566415 2.024838 -0.112052
v 1.566414 2.024838 0.538681
v -0.803111 2.024838 0.538680
v -0.803110 2.024838 -0.112053
v -0.803110 1.989843 -0.112053
v -0.803111 1.989843 0.538680
v 1.566414 1.989843 0.538681
v 1.566415 1.989843 -0.112052
v -0.105939 1.995860 0.442282
v 0.008726 1.995860 0.387429
v 0.085343 1.995860 0.305336
v 0.112248 1.995860 0.208500
v 0.085343 1.995860 0.111664
v 0.008726 1.995860 0.029571
v -0.105939 1.995860 -0.025282
v -0.376454 1.995860 0.442282
v -0.491119 1.995860 0.387429
v -0.567736 1.995860 0.305336
v -0.594641 1.995860 0.208500
v -0.567736 1.995860 0.111664
v -0.491119 1.995860 0.029571
v -0.376454 1.995860 -0.025282
v -0.241196 1.995860 -0.044543
v -0.336838 1.951487 -0.025282
v -0.417919 1.913869 0.029571
v -0.472095 1.888734 0.111664
v -0.491119 1.879907 0.208500
v -0.472095 1.888734 0.305336
v -0.417919 1.913869 0.387429
v -0.336838 1.951487 0.442282
v -0.241196 1.995860 0.461544
v -0.241196 1.933107 0.442282
v -0.241196 1.879907 0.387429
v -0.241196 1.844360 0.305336
v -0.241196 1.831878 0.208500
v -0.241196 1.844360 0.111665
v -0.241196 1.879907 0.029571
v -0.241196 1.933107 -0.025282
v -0.145555 1.951487 -0.025282
v -0.064474 1.913869 0.029571
v -0.010298 1.888734 0.111664
v 0.008726 1.879907 0.208500
v -0.010298 1.888734 0.305336
v -0.064474 1.913869 0.387429
v -0.145555 1.951487 0.442282
v 1.097013 1.951487 0.442282
v 1.178094 1.913869 0.387429
v 1.232270 1.888734 0.305336
v 1.251295 1.879907 0.208500
v 1.232270 1.888734 0.111664
v 1.178094 1.913869 0.029571
v 1.097013 1.951487 -0.025282
v 1.001372 1.933107 -0.025282
v 1.001372 1.879907 0.029571
v 1.001372 1.844360 0.111665
v 1.001372 1.831878 0.208500
v 1.001372 1.844360 0.305336
v 1.001372 1.879907 0.387429
v 1.001372 1.933107 0.442282
v 1.001372 1.995860 0.461544
v 0.905730 1.951487 0.442282
v 0.824650 1.913869 0.387429
v 0.770473 1.888734 0.305336
v 0.751449 1.879907 0.208500
v 0.770473 1.888734 0.111664
v 0.824650 1.913869 0.029571
v 0.905730 1.951487 -0.025282
v 1.001372 1.995860 -0.044543
v 0.866114 1.995860 -0.025282
v 0.751449 1.995860 0.029571
v 0.674832 1.995860 0.111664
v 0.647927 1.995860 0.208500
v 0.674832 1.995860 0.305336
v 0.751449 1.995860 0.387429
v 0.866114 1.995860 0.442282
v 1.136629 1.995860 -0.025282
v 1.251294 1.995860 0.029571
v 1.327912 1.995860 0.111664
v 1.354816 1.995860 0.208500
v 1.327912 1.995860 0.305336
v 1.251294 1.995860 0.387429
v 1.136629 1.995860 0.442282
v 1.450982 2.102478 0.439143
v 1.378404 2.102478 0.439143
v 1.450982 2.102478 0.506782
v 1.378404 2.102478 0.506782
v 1.450982 2.128311 0.439143
v 1.378404 2.128312 0.439143
v 1.450982 2.128311 0.506782
v 1.378404 2.128312 0.506782
v 1.429932 2.128311 0.458760
v 1.399454 2.128311 0.458760
v 1.429932 2.128311 0.487164
v 1.399454 2.128312 0.487164
v 1.399454 3.574511 0.458760
v 1.429932 3.574511 0.458760
v 1.399454 3.574511 0.487164
v 1.429932 3.574511 0.487164
v 1.376755 3.574511 0.437606
v 1.452630 3.574511 0.437606
v 1.376755 3.574511 0.508318
v 1.452630 3.574511 0.508318
v 1.376755 3.601166 0.437606
v 1.452630 3.601166 0.437606
v 1.376755 3.601166 0.508318
v 1.452630 3.601166 0.508318
v 1.452630 3.601166 -0.011668
v 1.376755 3.601166 -0.011668
v 1.452630 3.601166 -0.082380
v 1.376755 3.601166 -0.082380
v 1.452630 3.574511 -0.011668
v 1.376755 3.574511 -0.011668
v 1.452630 3.574511 -0.082380
v 1.376755 3.574511 -0.082380
v 1.429932 3.574511 -0.032822
v 1.399454 3.574511 -0.032822
v 1.429932 3.574511 -0.061226
v 1.399454 3.574511 -0.061226
v 1.399454 2.128312 -0.032822
v 1.429932 2.128311 -0.032822
v 1.399454 2.128311 -0.061225
v 1.429932 2.128311 -0.061225
v 1.378404 2.128312 -0.013204
v 1.450982 2.128311 -0.013204
v 1.378404 2.128312 -0.080843
v 1.450982 2.128311 -0.080843
v 1.378404 2.102478 -0.013204
v 1.450982 2.102478 -0.013204
v 1.378404 2.102478 -0.080843
v 1.450982 2.102478 -0.080843
v -0.603859 2.102478 -0.080843
v -0.676436 2.102478 -0.080843
v -0.603859 2.102478 -0.013204
v -0.676436 2.102478 -0.013204
v -0.603859 2.128311 -0.080843
v -0.676436 2.128312 -0.080843
v -0.603859 2.128311 -0.013204
v -0.676436 2.128312 -0.013204
v -0.624909 2.128311 -0.061225
v -0.655386 2.128311 -0.061225
v -0.624909 2.128311 -0.032822
v -0.655386 2.128312 -0.032822
v -0.655386 3.574511 -0.061226
v -0.624909 3.574511 -0.061226
v -0.655386 3.574511 -0.032822
v -0.624909 3.574511 -0.032822
v -0.678085 3.574511 -0.082380
v -0.602210 3.574511 -0.082380
v -0.678085 3.574511 -0.011668
v -0.602210 3.574511 -0.011668
v -0.678085 3.601166 -0.082380
v -0.602210 3.601166 -0.082380
v -0.678085 3.601166 -0.011668
v -0.602210 3.601166 -0.011668
v -0.605796 3.601166 0.501146
v -0.681671 3.601166 0.501146
v -0.605796 3.601166 0.430434
v -0.681671 3.601166 0.430434
v -0.605796 3.574511 0.501146
v -0.681671 3.574511 0.501146
v -0.605796 3.574511 0.430434
v -0.681671 3.574511 0.430434
v -0.628495 3.574511 0.479992
v -0.658972 3.574511 0.479992
v -0.628495 3.574511 0.451588
v -0.658972 3.574511 0.451588
v -0.658972 2.128312 0.479992
v -0.628495 2.128311 0.479992
v -0.658972 2.128311 0.451588
v -0.628495 2.128311 0.451588
v -0.680022 2.128312 0.499610
v -0.607445 2.128311 0.499610
v -0.680022 2.128312 0.431970
v -0.607445 2.128311 0.431970
v -0.680022 2.102478 0.499610
v -0.607445 2.102478 0.499610
v -0.680022 2.102478 0.431970
v -0.607445 2.102478 0.431970
vt 0.825768 0.892549
vt 0.810131 0.899821
vt 0.803205 0.892978
vt 0.665877 0.886931
vt 0.674193 0.881869
vt 0.687733 0.892549
vt 0.688973 0.881931
vt 0.824528 0.903166
vt 0.839308 0.903228
vt 0.703370 0.885276
vt 0.710296 0.892119
vt 0.847624 0.898166
vt 0.872598 0.220528
vt 0.866565 0.244004
vt 0.861128 0.235072
vt 0.832569 0.885276
vt 0.839496 0.892118
vt 0.816932 0.892549
vt 0.818172 0.881931
vt 0.861194 0.219197
vt 0.864787 0.203734
vt 0.803391 0.881869
vt 0.795075 0.886931
vt 0.872135 0.196295
vt 0.691516 0.017793
vt 0.700371 0.028033
vt 0.678210 0.056834
vt 0.667373 0.048240
vt 0.727026 0.018793
vt 0.726231 0.000001
vt 0.766279 0.025037
vt 0.774362 0.009702
vt 0.817486 0.044958
vt 0.800278 0.063902
vt 0.709302 0.038855
vt 0.689356 0.055546
vt 0.756949 0.044049
vt 0.731745 0.035921
vt 0.773215 0.063500
vt 0.701514 0.232036
vt 0.685723 0.207565
vt 0.754135 0.245997
vt 0.726477 0.245065
vt 0.770988 0.225874
vt 0.689534 0.254491
vt 0.655089 0.200897
vt 0.764088 0.262559
vt 0.725959 0.267406
vt 0.799749 0.225256
vt 0.678599 0.268680
vt 0.633009 0.219405
vt 0.771612 0.281586
vt 0.721911 0.285167
vt 0.817486 0.244599
vt 0.630759 0.811031
vt 0.666625 0.823748
vt 0.662640 0.841237
vt 0.619991 0.825003
vt 0.704171 0.818975
vt 0.739285 0.782243
vt 0.756750 0.801290
vt 0.711580 0.837710
vt 0.596841 0.758258
vt 0.575099 0.776482
vt 0.642555 0.788919
vt 0.667135 0.801749
vt 0.694369 0.802666
vt 0.710965 0.782852
vt 0.627006 0.764824
vt 0.650223 0.598699
vt 0.672323 0.595811
vt 0.697141 0.603815
vt 0.713157 0.622967
vt 0.630583 0.615135
vt 0.641429 0.588043
vt 0.667677 0.578945
vt 0.706328 0.585093
vt 0.739805 0.623364
vt 0.619608 0.616403
vt 0.666894 0.560441
vt 0.632711 0.577960
vt 0.714287 0.569994
vt 0.756750 0.604710
vt 0.608937 0.607941
vt 0.814360 0.577961
vt 0.823079 0.588043
vt 0.801258 0.616403
vt 0.790586 0.607941
vt 0.849326 0.578945
vt 0.848543 0.560441
vt 0.887978 0.585093
vt 0.895937 0.569993
vt 0.938400 0.604710
vt 0.921455 0.623363
vt 0.831873 0.598699
vt 0.812233 0.615135
vt 0.878790 0.603814
vt 0.853972 0.595811
vt 0.894807 0.622967
vt 0.824205 0.788920
vt 0.808656 0.764824
vt 0.876019 0.802667
vt 0.848785 0.801749
vt 0.892615 0.782853
vt 0.812409 0.811031
vt 0.778491 0.758259
vt 0.885820 0.818976
vt 0.848275 0.823748
vt 0.920935 0.782245
vt 0.801641 0.825003
vt 0.756750 0.776483
vt 0.893229 0.837710
vt 0.844290 0.841237
vt 0.938400 0.801292
vt 0.505056 0.254490
vt 0.541481 0.267406
vt 0.537433 0.285167
vt 0.494120 0.268680
vt 0.579611 0.262559
vt 0.615272 0.225256
vt 0.633009 0.244599
vt 0.587135 0.281586
vt 0.470611 0.200896
vt 0.448531 0.219404
vt 0.517036 0.232035
vt 0.541999 0.245065
vt 0.569657 0.245996
vt 0.586511 0.225874
vt 0.501246 0.207564
vt 0.524824 0.038854
vt 0.547268 0.035921
vt 0.572472 0.044049
vt 0.588737 0.063500
vt 0.504879 0.055545
vt 0.515893 0.028032
vt 0.542549 0.018792
vt 0.581802 0.025037
vt 0.615800 0.063903
vt 0.493733 0.056833
vt 0.541755 0.000000
vt 0.507039 0.017792
vt 0.589885 0.009702
vt 0.633009 0.044959
vt 0.482895 0.048240
vt 0.855024 0.189711
vt 0.865602 0.174082
vt 0.842670 0.178785
vt 0.854255 0.157098
vt 0.827704 0.170936
vt 0.840072 0.146402
vt 0.756750 0.847179
vt 0.781631 0.841237
vt 0.763399 0.862323
vt 0.785532 0.856479
vt 0.776351 0.876247
vt 0.792781 0.870016
vt 0.819495 0.870599
vt 0.821079 0.857036
vt 0.822923 0.841237
vt 0.834456 0.216075
vt 0.817486 0.214093
vt 0.849023 0.217776
vt 0.848397 0.246468
vt 0.833858 0.254254
vt 0.817486 0.258444
vt 0.863106 0.850749
vt 0.855798 0.864684
vt 0.845625 0.876186
vt 0.860178 0.886035
vt 0.875991 0.875470
vt 0.885949 0.862264
vt 0.840135 0.278027
vt 0.823869 0.285167
vt 0.855090 0.264114
vt 0.849918 0.915081
vt 0.866348 0.908850
vt 0.857167 0.928618
vt 0.879300 0.922774
vt 0.861069 0.943860
vt 0.885949 0.937918
vt 0.733908 0.850751
vt 0.756750 0.862266
vt 0.746791 0.875471
vt 0.726599 0.864685
vt 0.730978 0.886036
vt 0.716426 0.876187
vt 0.690296 0.870599
vt 0.691880 0.857037
vt 0.693725 0.841237
vt 0.821620 0.928060
vt 0.819775 0.943860
vt 0.823204 0.914498
vt 0.797074 0.908910
vt 0.786901 0.920412
vt 0.779593 0.934346
vt 0.652432 0.841237
vt 0.656333 0.856480
vt 0.663582 0.870016
vt 0.647153 0.876248
vt 0.634200 0.862324
vt 0.627551 0.847179
vt 0.766710 0.909625
vt 0.756750 0.922830
vt 0.782523 0.899060
vt 0.448531 0.439320
vt 0.448531 0.319576
vt 0.884555 0.439320
vt 0.884555 0.319576
vt 0.541151 0.951881
vt 0.508935 0.705550
vt 0.538824 0.690158
vt 0.575099 0.948484
vt 0.338368 0.600957
vt 0.342983 0.560441
vt 0.087030 0.710796
vt 0.057584 0.675455
vt 0.041386 0.951881
vt 0.000000 0.942082
vt 0.100994 0.756509
vt 0.076633 0.902375
vt 0.368366 0.649016
vt 0.473244 0.707400
vt 0.494648 0.941814
vt 0.832726 1.000000
vt 0.625401 0.989418
vt 0.628411 0.962470
vt 0.835735 0.973053
vt 0.416401 0.989411
vt 0.419410 0.962461
vt 0.209035 0.978835
vt 0.212044 0.951881
vt 0.000000 0.978834
vt 0.003009 0.951881
vt 0.214381 0.033597
vt 0.439102 0.089218
vt 0.358309 0.096722
vt 0.239854 0.062197
vt 0.031032 0.165155
vt 0.056814 0.212021
vt 0.036118 0.365737
vt 0.056706 0.332790
vt 0.245702 0.526158
vt 0.262011 0.471982
vt 0.216437 0.560441
vt 0.000000 0.380819
vt 0.000000 0.142442
vt 0.209754 0.000000
vt 0.448531 0.058558
vt 0.888470 0.560441
vt 0.448531 0.560441
vt 0.888470 0.439320
vn 0.000000 -0.210883 -0.977477
vn -0.182287 -0.459761 -0.869106
vn -0.320231 -0.285897 -0.903134
vn -0.320231 -0.285897 0.903134
vn -0.182287 -0.459761 0.869106
vn 0.000000 -0.210883 0.977477
vn 0.000000 -0.521165 0.853420
vn 0.000000 -0.521195 -0.853420
vn 0.182287 -0.459761 -0.869106
vn 0.182287 -0.459761 0.869106
vn 0.320231 -0.285897 0.903134
vn 0.320231 -0.285897 -0.903134
vn 0.000000 0.000000 -1.000000
vn 0.000000 0.000000 1.000000
vn 1.000000 0.000000 0.000000
vn -1.000000 0.000000 0.000000
vn 0.000003 1.000000 0.000009
vn 0.000000 1.000000 0.000000
vn 0.000003 1.000000 -0.000004
vn 0.000008 1.000000 0.000008
vn 0.000019 1.000000 -0.000008
vn 0.000000 -1.000000 0.000000
vn 0.000000 -0.000001 -1.000000
vn -0.337046 -0.670736 -0.660665
vn -0.551744 -0.492599 -0.672964
vn -0.446974 -0.821039 -0.355052
vn -0.703696 -0.628254 -0.331706
vn -0.586077 -0.810236 0.000000
vn -0.745933 -0.665975 0.000000
vn -0.703696 -0.628254 0.331706
vn -0.446974 -0.821039 0.355052
vn -0.551744 -0.492599 0.672964
vn -0.337046 -0.670736 0.660665
vn 0.000000 -0.795648 0.605701
vn 0.000000 -0.950591 0.310343
vn 0.000000 -0.950591 -0.310343
vn 0.000000 -0.795648 -0.605701
vn 0.337046 -0.670736 -0.660665
vn 0.446974 -0.821039 -0.355052
vn 0.586077 -0.810236 0.000000
vn 0.446974 -0.821039 0.355052
vn 0.337046 -0.670736 0.660665
vn 0.551744 -0.492599 0.672964
vn 0.703696 -0.628254 0.331706
vn 0.745933 -0.665975 0.000000
vn 0.703696 -0.628254 -0.331706
vn 0.551744 -0.492599 -0.672964
vn -0.408246 -0.408246 0.816492
vn -0.666646 -0.666646 -0.333323
vn 0.666646 -0.666646 0.333323
vn 0.408246 -0.408246 -0.816492
vn 0.534501 0.801782 -0.267251
vn 0.218207 0.872860 0.436415
vn -0.666646 0.666646 0.333323
vn -0.267251 0.801782 -0.534501
vn -0.534501 0.801782 -0.267251
vn 0.267251 0.801782 -0.534501
vn -0.218207 0.872860 0.436415
vn 0.666646 0.666646 0.333323
vn 0.436415 -0.872860 -0.218207
vn 0.267251 -0.801782 0.534501
vn -0.534501 -0.801782 0.267251
vn -0.333323 -0.666646 -0.666646
vn -0.436415 -0.872860 -0.218207
vn 0.333323 -0.666646 -0.666646
vn -0.267251 -0.801782 0.534501
vn 0.534501 -0.801782 0.267251
vn 0.816492 0.408246 -0.408246
vn 0.333323 0.666646 0.666646
vn -0.816492 0.408246 0.408246
vn -0.333323 0.666646 -0.666646
usemtl mur_plateforme2.tga
s 1
f 39/1/1 40/2/2 38/3/3
f 32/4/4 46/5/5 47/6/6
f 46/5/5 48/7/7 47/6/6
f 39/1/1 54/8/8 40/2/2
f 39/1/1 55/9/9 54/8/8
f 48/7/7 61/10/10 47/6/6
f 61/10/10 25/11/11 47/6/6
f 39/1/1 31/12/12 55/9/9
f 84/13/1 92/14/12 68/15/9
f 62/16/10 98/17/11 76/18/6
f 75/19/7 62/16/10 76/18/6
f 84/13/1 68/15/9 69/20/8
f 84/13/1 69/20/8 83/21/2
f 77/22/5 75/19/7 76/18/6
f 91/23/4 77/22/5 76/18/6
f 84/13/1 83/21/2 85/24/3
s off
f 193/25/13 189/26/13 190/27/13
f 193/25/13 190/27/13 194/28/13
f 187/29/14 191/30/14 188/31/14
f 191/30/14 192/32/14 188/31/14
f 188/31/15 192/32/15 194/33/15
f 188/31/15 194/33/15 190/34/15
f 191/30/16 187/29/16 189/26/16
f 191/30/16 189/26/16 193/25/16
f 190/27/17 189/26/17 185/35/17
f 190/27/18 185/35/18 186/36/18
f 187/29/19 188/31/19 184/37/19
f 187/29/20 184/37/20 183/38/20
f 188/31/18 190/34/18 186/39/18
f 188/31/18 186/39/18 184/37/18
f 189/26/18 187/29/18 183/38/18
f 189/26/21 183/38/21 185/35/21
f 186/36/13 185/35/13 182/40/13
f 186/36/13 182/40/13 181/41/13
f 183/38/14 184/37/14 179/42/14
f 183/38/14 179/42/14 180/43/14
f 184/37/15 186/39/15 181/44/15
f 184/37/15 181/44/15 179/42/15
f 185/35/16 183/38/16 182/40/16
f 183/38/16 180/43/16 182/40/16
f 181/41/22 182/40/22 178/45/22
f 181/41/22 178/45/22 177/46/22
f 180/43/22 179/42/22 175/47/22
f 180/43/22 175/47/22 176/48/22
f 179/42/22 181/44/22 177/49/22
f 179/42/22 177/49/22 175/47/22
f 182/40/22 180/43/22 176/48/22
f 182/40/22 176/48/22 178/45/22
f 177/46/13 178/45/13 174/50/13
f 177/46/13 174/50/13 173/51/13
f 176/48/14 175/47/14 171/52/14
f 176/48/14 171/52/14 172/53/14
f 175/47/15 177/49/15 173/54/15
f 175/47/15 173/54/15 171/52/15
f 178/45/16 176/48/16 172/53/16
f 178/45/16 172/53/16 174/50/16
f 163/55/16 165/56/16 169/57/16
f 163/55/16 169/57/16 167/58/16
f 166/59/15 164/60/15 168/61/15
f 166/59/15 168/61/15 170/62/15
f 165/56/14 166/59/14 170/62/14
f 165/56/14 170/62/14 169/57/14
f 164/63/13 163/55/13 167/58/13
f 164/63/13 167/58/13 168/64/13
f 159/65/22 161/66/22 165/56/22
f 159/65/22 165/56/22 163/55/22
f 162/67/22 160/68/22 164/60/22
f 162/67/22 164/60/22 166/59/22
f 161/66/22 162/67/22 166/59/22
f 161/66/22 166/59/22 165/56/22
f 160/69/22 159/65/22 163/55/22
f 160/69/22 163/55/22 164/63/22
f 156/70/16 158/71/16 159/65/16
f 158/71/16 161/66/16 159/65/16
f 157/72/15 155/73/15 160/68/15
f 157/72/15 160/68/15 162/67/15
f 158/71/14 157/72/14 162/67/14
f 158/71/14 162/67/14 161/66/14
f 155/74/13 156/70/13 159/65/13
f 155/74/13 159/65/13 160/69/13
f 152/75/18 154/76/18 158/71/18
f 152/75/21 158/71/21 156/70/21
f 153/77/18 151/78/18 155/73/18
f 153/77/18 155/73/18 157/72/18
f 154/76/19 153/77/19 157/72/19
f 154/76/20 157/72/20 158/71/20
f 151/79/17 152/75/17 156/70/17
f 151/79/18 156/70/18 155/74/18
f 150/80/16 154/76/16 152/75/16
f 150/80/16 152/75/16 148/81/16
f 153/77/15 149/82/15 147/83/15
f 153/77/15 147/83/15 151/78/15
f 154/76/14 150/80/14 153/77/14
f 150/80/14 149/82/14 153/77/14
f 148/81/13 152/75/13 151/79/13
f 148/81/13 151/79/13 147/84/13
f 145/85/13 141/86/13 142/87/13
f 145/85/13 142/87/13 146/88/13
f 139/89/14 143/90/14 140/91/14
f 143/90/14 144/92/14 140/91/14
f 140/91/15 144/92/15 146/93/15
f 140/91/15 146/93/15 142/94/15
f 143/90/16 139/89/16 141/86/16
f 143/90/16 141/86/16 145/85/16
f 142/87/17 141/86/17 137/95/17
f 142/87/18 137/95/18 138/96/18
f 139/89/19 140/91/19 136/97/19
f 139/89/20 136/97/20 135/98/20
f 140/91/18 142/94/18 138/99/18
f 140/91/18 138/99/18 136/97/18
f 141/86/18 139/89/18 135/98/18
f 141/86/21 135/98/21 137/95/21
f 138/96/13 137/95/13 134/100/13
f 138/96/13 134/100/13 133/101/13
f 135/98/14 136/97/14 131/102/14
f 135/98/14 131/102/14 132/103/14
f 136/97/15 138/99/15 133/104/15
f 136/97/15 133/104/15 131/102/15
f 137/95/16 135/98/16 134/100/16
f 135/98/16 132/103/16 134/100/16
f 133/101/22 134/100/22 130/105/22
f 133/101/22 130/105/22 129/106/22
f 132/103/22 131/102/22 127/107/22
f 132/103/22 127/107/22 128/108/22
f 131/102/22 133/104/22 129/109/22
f 131/102/22 129/109/22 127/107/22
f 134/100/22 132/103/22 128/108/22
f 134/100/22 128/108/22 130/105/22
f 129/106/13 130/105/13 126/110/13
f 129/106/13 126/110/13 125/111/13
f 128/108/14 127/107/14 123/112/14
f 128/108/14 123/112/14 124/113/14
f 127/107/15 129/109/15 125/114/15
f 127/107/15 125/114/15 123/112/15
f 130/105/16 128/108/16 124/113/16
f 130/105/16 124/113/16 126/110/16
f 115/115/16 117/116/16 121/117/16
f 115/115/16 121/117/16 119/118/16
f 118/119/15 116/120/15 120/121/15
f 118/119/15 120/121/15 122/122/15
f 117/116/14 118/119/14 122/122/14
f 117/116/14 122/122/14 121/117/14
f 116/123/23 115/115/23 119/118/23
f 116/123/23 119/118/23 120/124/23
f 111/125/22 113/126/22 117/116/22
f 111/125/22 117/116/22 115/115/22
f 114/127/22 112/128/22 116/120/22
f 114/127/22 116/120/22 118/119/22
f 113/126/22 114/127/22 118/119/22
f 113/126/22 118/119/22 117/116/22
f 112/129/22 111/125/22 115/115/22
f 112/129/22 115/115/22 116/123/22
f 108/130/16 110/131/16 111/125/16
f 110/131/16 113/126/16 111/125/16
f 109/132/15 107/133/15 112/128/15
f 109/132/15 112/128/15 114/127/15
f 110/131/14 109/132/14 114/127/14
f 110/131/14 114/127/14 113/126/14
f 107/134/13 108/130/13 111/125/13
f 107/134/13 111/125/13 112/129/13
f 104/135/18 106/136/18 110/131/18
f 104/135/21 110/131/21 108/130/21
f 105/137/18 103/138/18 107/133/18
f 105/137/18 107/133/18 109/132/18
f 106/136/19 105/137/19 109/132/19
f 106/136/20 109/132/20 110/131/20
f 103/139/17 104/135/17 108/130/17
f 103/139/18 108/130/18 107/134/18
f 102/140/16 106/136/16 104/135/16
f 102/140/16 104/135/16 100/141/16
f 105/137/15 101/142/15 99/143/15
f 105/137/15 99/143/15 103/138/15
f 106/136/14 102/140/14 105/137/14
f 102/140/14 101/142/14 105/137/14
f 100/141/23 104/135/23 103/139/23
f 100/141/23 103/139/23 99/144/23
s 1
f 85/24/3 83/21/2 82/145/24
f 85/24/3 82/145/24 86/146/25
f 86/146/25 82/145/24 81/147/26
f 86/146/25 81/147/26 87/148/27
f 87/148/27 81/147/26 80/149/28
f 87/148/27 80/149/28 88/150/29
f 88/151/29 80/152/28 89/153/30
f 80/152/28 79/154/31 89/153/30
f 89/153/30 79/154/31 90/155/32
f 79/154/31 78/156/33 90/155/32
f 90/155/32 78/156/33 91/23/4
f 78/156/33 77/22/5 91/23/4
f 78/156/33 74/157/34 77/22/5
f 74/157/34 75/19/7 77/22/5
f 79/154/31 73/158/35 78/156/33
f 73/158/35 74/157/34 78/156/33
f 80/152/28 72/159/22 79/154/31
f 72/159/22 73/158/35 79/154/31
f 81/147/26 71/160/36 72/161/22
f 81/147/26 72/161/22 80/149/28
f 82/145/24 70/162/37 71/160/36
f 82/145/24 71/160/36 81/147/26
f 83/21/2 69/20/8 70/162/37
f 83/21/2 70/162/37 82/145/24
f 69/20/8 68/15/9 70/162/37
f 68/15/9 67/163/38 70/162/37
f 70/162/37 67/163/38 71/160/36
f 67/163/38 66/164/39 71/160/36
f 71/160/36 66/164/39 72/161/22
f 66/164/39 65/165/40 72/161/22
f 72/159/22 65/166/40 64/167/41
f 72/159/22 64/167/41 73/158/35
f 73/158/35 64/167/41 63/168/42
f 73/158/35 63/168/42 74/157/34
f 74/157/34 63/168/42 62/16/10
f 74/157/34 62/16/10 75/19/7
f 63/168/42 97/169/43 98/17/11
f 63/168/42 98/17/11 62/16/10
f 64/167/41 96/170/44 97/169/43
f 64/167/41 97/169/43 63/168/42
f 65/166/40 95/171/45 96/170/44
f 65/166/40 96/170/44 64/167/41
f 66/164/39 94/172/46 65/165/40
f 94/172/46 95/173/45 65/165/40
f 67/163/38 93/174/47 66/164/39
f 93/174/47 94/172/46 66/164/39
f 68/15/9 92/14/12 67/163/38
f 92/14/12 93/174/47 67/163/38
f 55/9/9 31/12/12 56/175/38
f 31/12/12 30/176/47 56/175/38
f 56/175/38 30/176/47 57/177/39
f 30/176/47 29/178/46 57/177/39
f 57/177/39 29/178/46 58/179/40
f 29/178/46 28/180/45 58/179/40
f 58/181/40 28/182/45 27/183/44
f 58/181/40 27/183/44 59/184/41
f 59/184/41 27/183/44 26/185/43
f 59/184/41 26/185/43 60/186/42
f 60/186/42 26/185/43 25/11/11
f 60/186/42 25/11/11 61/10/10
f 49/187/34 60/186/42 61/10/10
f 49/187/34 61/10/10 48/7/7
f 50/188/35 59/184/41 60/186/42
f 50/188/35 60/186/42 49/187/34
f 51/189/22 58/181/40 59/184/41
f 51/189/22 59/184/41 50/188/35
f 52/190/36 57/177/39 51/191/22
f 57/177/39 58/179/40 51/191/22
f 53/192/37 56/175/38 52/190/36
f 56/175/38 57/177/39 52/190/36
f 54/8/8 55/9/9 53/192/37
f 55/9/9 56/175/38 53/192/37
f 40/2/2 54/8/8 53/192/37
f 40/2/2 53/192/37 41/193/24
f 41/193/24 53/192/37 52/190/36
f 41/193/24 52/190/36 42/194/26
f 42/194/26 52/190/36 51/191/22
f 42/194/26 51/191/22 43/195/28
f 43/196/28 51/189/22 44/197/31
f 51/189/22 50/188/35 44/197/31
f 44/197/31 50/188/35 45/198/33
f 50/188/35 49/187/34 45/198/33
f 45/198/33 49/187/34 46/5/5
f 49/187/34 48/7/7 46/5/5
f 33/199/32 45/198/33 32/4/4
f 45/198/33 46/5/5 32/4/4
f 34/200/30 44/197/31 33/199/32
f 44/197/31 45/198/33 33/199/32
f 35/201/29 43/196/28 34/200/30
f 43/196/28 44/197/31 34/200/30
f 36/202/27 42/194/26 43/195/28
f 36/202/27 43/195/28 35/203/29
f 37/204/25 41/193/24 42/194/26
f 37/204/25 42/194/26 36/202/27
f 38/3/3 40/2/2 41/193/24
f 38/3/3 41/193/24 37/204/25
f 22/205/48 21/206/49 23/207/50
f 21/206/49 24/208/51 23/207/50
f 17/209/52 18/210/53 23/211/50
f 17/209/52 23/211/50 24/212/51
f 18/210/53 19/213/54 22/214/48
f 18/210/53 22/214/48 23/211/50
f 19/213/54 20/215/55 21/216/49
f 19/213/54 21/216/49 22/214/48
f 20/215/55 17/217/52 24/218/51
f 20/215/55 24/218/51 21/216/49
f 13/219/56 16/220/57 17/217/52
f 13/219/56 17/217/52 20/215/55
f 14/221/58 13/219/56 20/215/55
f 14/221/58 20/215/55 19/213/54
f 15/222/59 14/221/58 18/210/53
f 14/221/58 19/213/54 18/210/53
f 16/223/57 15/222/59 18/210/53
f 16/223/57 18/210/53 17/209/52
f 9/224/60 10/225/61 15/226/59
f 9/224/60 15/226/59 16/227/57
f 10/225/61 11/228/62 14/229/58
f 10/225/61 14/229/58 15/226/59
f 11/228/62 12/230/63 13/231/56
f 11/228/62 13/231/56 14/229/58
f 12/230/63 9/232/60 16/233/57
f 12/230/63 16/233/57 13/231/56
f 5/234/64 8/235/65 9/236/60
f 5/234/64 9/236/60 12/237/63
f 6/238/66 5/234/64 11/239/62
f 5/234/64 12/237/63 11/239/62
f 7/240/67 6/238/66 10/241/61
f 6/238/66 11/239/62 10/241/61
f 8/242/65 7/240/67 9/243/60
f 7/240/67 10/241/61 9/243/60
f 1/244/68 2/245/69 7/240/67
f 1/244/68 7/240/67 8/242/65
f 2/245/69 3/246/70 6/238/66
f 2/245/69 6/238/66 7/240/67
f 3/246/70 4/247/71 5/234/64
f 3/246/70 5/234/64 6/238/66
f 4/247/71 1/248/68 8/235/65
f 4/247/71 8/235/65 5/234/64
f 1/249/68 4/250/71 2/251/69
f 4/250/71 3/205/70 2/251/69
