# Blender3D v248 OBJ File: map_Rome_allege2.blend
# www.blender3d.org
mtllib rome/solAutel.mtl
v -3.000917 -0.003516 -2.465024
v -2.734431 -0.003516 -2.003457
v -2.734431 -0.003516 -1.470485
v -3.000917 -0.003516 -1.008918
v -3.462484 -0.003516 -0.742432
v -3.995455 -0.003516 -0.742432
v -4.457023 -0.003516 -1.008918
v -4.723508 -0.003516 -1.470485
v -4.723509 -0.003516 -2.003456
v -4.457023 -0.003516 -2.465023
v -3.995456 -0.003516 -2.731509
v -3.462485 -0.003516 -2.731510
v -3.728970 -0.003516 -1.736971
v -3.462485 0.203795 -2.731510
v -3.995456 0.203795 -2.731510
v -4.457023 0.203795 -2.465024
v -4.723509 0.203795 -2.003457
v -4.723508 0.203795 -1.470485
v -4.457023 0.203795 -1.008918
v -3.995455 0.203795 -0.742432
v -3.462484 0.203795 -0.742432
v -3.000917 0.203795 -1.008918
v -2.734431 0.203795 -1.470485
v -2.734431 0.203795 -2.003457
v -3.000917 0.203795 -2.465024
v -3.126281 0.203795 -2.339661
v -2.905681 0.203795 -1.957571
v -2.905681 0.203795 -1.516371
v -3.126281 0.203795 -1.134282
v -3.508371 0.203795 -0.913682
v -3.949569 0.203795 -0.913682
v -4.331660 0.203795 -1.134281
v -4.552259 0.203795 -1.516371
v -4.552260 0.203795 -1.957570
v -4.331660 0.203795 -2.339660
v -3.949570 0.203795 -2.560260
v -3.508371 0.203795 -2.560261
v -3.728970 0.330204 -1.736971
v -3.508371 0.330204 -2.560261
v -3.949570 0.330204 -2.560260
v -4.331660 0.330204 -2.339660
v -4.552260 0.330204 -1.957570
v -4.552259 0.330204 -1.516371
v -4.331660 0.330204 -1.134281
v -3.949569 0.330204 -0.913682
v -3.508371 0.330204 -0.913682
v -3.126281 0.330204 -1.134282
v -2.905681 0.330204 -1.516371
v -2.905681 0.330204 -1.957571
v -3.126281 0.330204 -2.339661
vt 0.534035 0.195470
vt 0.534036 0.338564
vt 0.267018 0.267018
vt 0.462488 0.071547
vt 0.338565 0.000000
vt 0.195471 0.000000
vt 0.071547 0.071547
vt 0.000000 0.195471
vt 0.000000 0.338565
vt 0.071547 0.462489
vt 0.195471 0.534036
vt 0.338566 0.534036
vt 0.462489 0.462488
vt 0.338566 0.534035
vt 0.751693 0.033779
vt 0.848335 0.050521
vt 0.770812 0.244859
vt 0.925686 0.107519
vt 0.968729 0.191987
vt 0.969398 0.285721
vt 0.928501 0.368960
vt 0.855474 0.424572
vt 0.766198 0.441665
vt 0.679180 0.417939
vt 0.609917 0.360052
vt 0.560422 0.273797
vt 0.561063 0.133927
vt 0.653100 0.062226
vt 0.750909 0.000000
vt 0.862159 0.020659
vt 0.950984 0.087319
vt 1.000000 0.185330
vt 1.000000 0.293670
vt 0.952066 0.389532
vt 0.867258 0.453184
vt 0.764130 0.472177
vt 0.664475 0.444222
vt 0.587179 0.378508
vt 0.534036 0.289563
vt 0.537541 0.102865
vt 0.638000 0.030088
vt 0.680288 0.641299
vt 0.619507 0.724178
vt 0.593294 0.699130
vt 0.648920 0.624379
vt 0.719812 0.537236
vt 0.681371 0.534036
vt 0.026433 0.606636
vt 0.027272 0.541284
vt 0.050258 0.548071
vt 0.047475 0.604355
vt 0.040462 0.667863
vt 0.062591 0.659553
vt 0.071091 0.725583
vt 0.089455 0.712523
vt 0.116843 0.776527
vt 0.132867 0.757021
vt 0.179835 0.817371
vt 0.191443 0.792174
vt 0.258007 0.843210
vt 0.263352 0.813246
vt 0.348101 0.849067
vt 0.345535 0.815707
vt 0.445409 0.831375
vt 0.433939 0.795647
vt 0.539249 0.788495
vt 0.520099 0.757430
vt 0.651351 0.756495
vt 0.561854 0.827697
vt 0.457384 0.873954
vt 0.349214 0.890553
vt 0.249449 0.880184
vt 0.163763 0.848042
vt 0.095539 0.799938
vt 0.046286 0.741692
vt 0.013863 0.676757
vt 0.000000 0.609000
vt 0.000000 0.541284
vt 0.766501 0.555711
vt 0.720187 0.664883
vn -0.811792 0.566485 0.141606
vn -0.632221 0.566485 0.528550
vn 0.000000 1.000000 0.000000
vn -0.773827 0.566485 -0.283242
vn -0.528550 0.566485 -0.632221
vn -0.141606 0.566485 -0.811792
vn 0.283242 0.566485 -0.773827
vn 0.632221 0.566485 -0.528550
vn 0.811792 0.566485 -0.141606
vn 0.773827 0.566485 0.283242
vn 0.528550 0.566485 0.632221
vn 0.141606 0.566485 0.811792
vn -0.283242 0.566485 0.773827
vn -0.528550 -0.566485 0.632221
vn -0.773827 -0.566485 0.283242
vn 0.000000 -1.000000 0.000000
vn -0.811792 -0.566485 -0.141606
vn -0.632221 -0.566485 -0.528550
vn -0.283242 -0.566485 -0.773827
vn 0.141606 -0.566485 -0.811792
vn 0.528550 -0.566485 -0.632221
vn 0.773827 -0.566485 -0.283242
vn 0.811792 -0.566485 0.141606
vn 0.632221 -0.566485 0.528550
vn 0.283242 -0.566485 0.773827
vn -0.141606 -0.566485 0.811792
vn -0.534104 -0.717856 0.446516
vn -0.685812 -0.717856 0.119633
vn -0.653737 -0.717856 -0.239265
vn -0.377270 -0.808710 -0.451247
vn -0.119633 -0.717856 -0.685812
vn 0.239265 -0.717856 -0.653737
vn 0.534104 -0.717856 -0.446516
vn 0.811792 -0.566485 -0.141606
vn 0.653737 -0.717856 0.239265
vn 0.446516 -0.717856 0.534104
vn 0.119633 -0.717856 0.685812
vn -0.239265 -0.717856 0.653737
vn -0.119633 -0.717856 0.685812
vn -0.446516 -0.717856 0.534104
vn 0.239265 -0.717856 0.653737
vn 0.534104 -0.717856 0.446516
vn 0.685812 -0.717856 0.119633
vn 0.552355 -0.808710 -0.202155
vn 0.446516 -0.717856 -0.534104
vn 0.119633 -0.717856 -0.685812
vn -0.239265 -0.717856 -0.653737
vn -0.685812 -0.717856 -0.119633
vn -0.653737 -0.717856 0.239265
usemtl dessus2_dessus2.tga
s 1
f 2/1/1 1/2/2 13/3/3
f 13/3/3 3/4/4 2/1/1
f 13/3/3 4/5/5 3/4/4
f 13/3/3 5/6/6 4/5/5
f 13/3/3 6/7/7 5/6/6
f 13/3/3 7/8/8 6/7/7
f 13/3/3 8/9/9 7/8/8
f 13/3/3 9/10/10 8/9/9
f 13/3/3 10/11/11 9/10/10
f 13/3/3 11/12/12 10/11/11
f 13/3/3 12/13/13 11/14/12
f 13/3/3 1/2/2 12/13/13
f 50/15/14 49/16/15 38/17/16
f 49/16/15 48/18/17 38/17/16
f 48/18/17 47/19/18 38/17/16
f 47/19/18 46/20/19 38/17/16
f 46/20/19 45/21/20 38/17/16
f 45/21/20 44/22/21 38/17/16
f 44/22/21 43/23/22 38/17/16
f 43/23/22 42/24/23 38/17/16
f 42/24/23 41/25/24 38/17/16
f 41/25/24 40/26/25 38/17/16
f 40/27/25 39/28/26 38/17/16
f 39/28/26 50/15/14 38/17/16
f 26/29/27 27/30/28 49/16/15
f 26/29/27 49/16/15 50/15/14
f 27/30/28 28/31/29 48/18/17
f 27/30/28 48/18/17 49/16/15
f 28/31/29 29/32/30 47/19/18
f 28/31/29 47/19/18 48/18/17
f 29/32/30 30/33/31 46/20/19
f 29/32/30 46/20/19 47/19/18
f 30/33/31 31/34/32 45/21/20
f 30/33/31 45/21/20 46/20/19
f 31/34/32 32/35/33 44/22/21
f 31/34/32 44/22/21 45/21/20
f 32/35/33 33/36/34 43/23/22
f 32/35/33 43/23/22 44/22/21
f 33/36/34 34/37/35 42/24/23
f 33/36/34 42/24/23 43/23/22
f 34/37/35 35/38/36 41/25/24
f 34/37/35 41/25/24 42/24/23
f 35/38/36 36/39/37 40/26/25
f 35/38/36 40/26/25 41/25/24
f 36/40/37 37/41/38 39/28/26
f 36/40/37 39/28/26 40/27/25
f 37/41/38 26/29/27 50/15/14
f 37/41/38 50/15/14 39/28/26
f 14/42/39 25/43/40 26/44/27
f 14/42/39 26/44/27 37/45/38
f 15/46/41 14/42/39 37/45/38
f 15/46/41 37/45/38 36/47/37
f 16/48/42 15/49/41 36/50/37
f 16/48/42 36/50/37 35/51/36
f 17/52/43 16/48/42 35/51/36
f 17/52/43 35/51/36 34/53/35
f 18/54/44 17/52/43 34/53/35
f 18/54/44 34/53/35 33/55/34
f 19/56/45 18/54/44 32/57/33
f 18/54/44 33/55/34 32/57/33
f 20/58/46 19/56/45 31/59/32
f 19/56/45 32/57/33 31/59/32
f 21/60/47 20/58/46 30/61/31
f 20/58/46 31/59/32 30/61/31
f 22/62/18 21/60/47 29/63/30
f 21/60/47 30/61/31 29/63/30
f 23/64/48 22/62/18 29/63/30
f 23/64/48 29/63/30 28/65/29
f 24/66/49 23/64/48 28/65/29
f 24/66/49 28/65/29 27/67/28
f 25/43/40 24/66/49 27/67/28
f 25/43/40 27/67/28 26/44/27
f 1/68/2 2/69/1 24/66/49
f 1/68/2 24/66/49 25/43/40
f 2/69/1 3/70/4 23/64/48
f 2/69/1 23/64/48 24/66/49
f 3/70/4 4/71/5 22/62/18
f 3/70/4 22/62/18 23/64/48
f 4/71/5 5/72/6 21/60/47
f 4/71/5 21/60/47 22/62/18
f 5/72/6 6/73/7 20/58/46
f 5/72/6 20/58/46 21/60/47
f 6/73/7 7/74/8 19/56/45
f 6/73/7 19/56/45 20/58/46
f 7/74/8 8/75/9 18/54/44
f 7/74/8 18/54/44 19/56/45
f 8/75/9 9/76/10 17/52/43
f 8/75/9 17/52/43 18/54/44
f 9/76/10 10/77/11 16/48/42
f 9/76/10 16/48/42 17/52/43
f 10/77/11 11/78/12 15/49/41
f 10/77/11 15/49/41 16/48/42
f 11/79/12 12/80/13 14/42/39
f 11/79/12 14/42/39 15/46/41
f 12/80/13 1/68/2 25/43/40
f 12/80/13 25/43/40 14/42/39
